<svg xmlns="http://www.w3.org/2000/svg" viewBox="0 0 900 450"><defs><style>.cls-1{fill:#e8cbff;}.cls-15,.cls-2,.cls-5,.cls-7{fill:none;}.cls-2{stroke:#fff;}.cls-10,.cls-13,.cls-14,.cls-15,.cls-16,.cls-17,.cls-2,.cls-20,.cls-21,.cls-22,.cls-23,.cls-24,.cls-25,.cls-26,.cls-27,.cls-28,.cls-29,.cls-3,.cls-5,.cls-7,.cls-9{stroke-miterlimit:10;}.cls-10,.cls-13,.cls-14,.cls-17,.cls-2,.cls-20,.cls-21,.cls-5,.cls-7{stroke-width:2px;}.cls-3{fill:#9fc;}.cls-10,.cls-13,.cls-14,.cls-15,.cls-16,.cls-17,.cls-20,.cls-21,.cls-22,.cls-23,.cls-24,.cls-25,.cls-26,.cls-27,.cls-28,.cls-29,.cls-3,.cls-5,.cls-9{stroke:#231f20;}.cls-20,.cls-4,.cls-9{fill:#231f20;}.cls-25,.cls-6{fill:#ff99d6;}.cls-7{stroke:#000;}.cls-8{fill:#fbe5ff;}.cls-10,.cls-26{fill:#ffe799;}.cls-11{font-size:28.8px;}.cls-11,.cls-12{font-family:LexendMega-Medium, Lexend Mega;font-weight:500;}.cls-12{font-size:25.6px;}.cls-13{fill:#9f9;}.cls-14{fill:#99c0ff;}.cls-15,.cls-16{stroke-width:3.5px;}.cls-17,.cls-27{fill:#ff99a3;}.cls-18{font-size:14.4px;font-family:LexendMega-ExtraBold, Lexend Mega;font-weight:800;letter-spacing:-0.07em;}.cls-19{letter-spacing:-0.05em;}.cls-21{fill:#fff;}.cls-22{fill:#fff9e5;}.cls-23{fill:#f199ff;}.cls-24{fill:#99faff;}.cls-28{fill:#e5ffe5;}.cls-29{fill:#fc9;}</style></defs><g id="Layer_2" data-name="Layer 2"><rect class="cls-1" width="900" height="450.78"/><path class="cls-2" d="M-1.85,442.4l8,7.94"/><path class="cls-2" d="M-1.69,387.26c24.68,24.28,39.5,39,64.37,63.28"/><path class="cls-2" d="M-1.69,331.44c44.65,42.91,76.38,75.9,120.42,119.1"/><line class="cls-2" x1="161.52" y1="439.3" x2="150.87" y2="450.24"/><path class="cls-2" d="M-5.06,273.3C49.41,329.21,172.42,450,172.42,450"/><line class="cls-2" x1="-1.69" y1="324.93" x2="22.39" y2="301.17"/><path class="cls-2" d="M-2.14,380.51c19-19.1,33.41-32.56,52.69-52.16"/><path class="cls-2" d="M-1.64,434.84c28.71-28.1,51.84-51,79.81-79.15"/><path class="cls-2" d="M106.3,383.54c-24.56,23-44.51,42.49-67.22,66.3"/><path class="cls-2" d="M134.91,411.86c-14.19,13.91-25.35,24.92-39.44,38.92"/><path class="cls-2" d="M901.52,8.38l-8-7.94"/><path class="cls-2" d="M901.36,63.51c-24.68-24.28-39.5-39-64.37-63.28"/><path class="cls-2" d="M901.36,119.33C856.71,76.42,825,43.44,780.94.23"/><line class="cls-2" x1="738.15" y1="11.48" x2="748.8" y2="0.54"/><path class="cls-2" d="M904.73,177.48C850.26,121.56,727.25.76,727.25.76"/><line class="cls-2" x1="901.36" y1="125.85" x2="877.28" y2="149.61"/><path class="cls-2" d="M901.81,70.27c-19,19.09-33.41,32.55-52.69,52.16"/><path class="cls-2" d="M901.31,15.93c-28.71,28.1-51.84,51-79.81,79.15"/><path class="cls-2" d="M793.37,67.24c24.56-23,44.51-42.49,67.21-66.31"/><path class="cls-2" d="M764.76,38.91C779,25,790.11,14,804.2,0"/></g><g id="Layer_1" data-name="Layer 1"><polygon class="cls-3" points="330 338.92 336.47 364.77 355 345.62 347.68 371.24 373.3 363.92 354.15 382.45 380 388.92 354.15 395.39 373.3 413.92 347.68 406.6 355 432.22 336.47 413.07 330 438.92 323.53 413.07 305 432.22 312.32 406.6 286.7 413.92 305.85 395.39 280 388.92 305.85 382.45 286.7 363.92 312.32 371.24 305 345.62 323.53 364.77 330 338.92"/><rect class="cls-4" x="332" y="119.29" width="240" height="280" rx="25"/><rect class="cls-5" x="332" y="119.29" width="240" height="280" rx="25"/><rect class="cls-6" x="330" y="117.29" width="240" height="280" rx="25"/><rect class="cls-7" x="330" y="117.29" width="240" height="280" rx="25"/><rect class="cls-4" x="356" y="143.29" width="192" height="56" rx="12"/><rect class="cls-5" x="356" y="143.29" width="192" height="56" rx="12"/><rect class="cls-8" x="354" y="141.29" width="192" height="56" rx="12"/><rect class="cls-5" x="354" y="141.29" width="192" height="56" rx="12"/><rect class="cls-9" x="406" y="159.29" width="8" height="20" rx="4"/><rect class="cls-9" x="486" y="159.29" width="8" height="20" rx="4"/><path class="cls-4" d="M441.84,181.3a12.13,12.13,0,0,0,5,4.57,7.7,7.7,0,0,0,5.6.41,9.88,9.88,0,0,0,4-2.69,12.32,12.32,0,0,0,1.69-2.29,2.5,2.5,0,1,0-4.32-2.52c-.06.12-.14.24-.21.36s-.16.25-.25.37l-.18.26c-.2.27.42-.52.1-.14a10.72,10.72,0,0,1-1,1.09c-.09.09-.23.17-.3.26s.45-.32.24-.18l-.17.12a5.21,5.21,0,0,1-.78.47c-.09.05-.54.26-.16.09s-.08,0-.18,0l-.43.11c-.54.13.4,0,0,0h-.55c-.05,0-.19,0-.23,0s.54.11.29,0l-.93-.25c-.42-.14.45.23.06,0-.13-.07-.26-.13-.39-.21s-.52-.34-.78-.5.24.19.23.18l-.16-.13-.31-.27a8.08,8.08,0,0,1-.6-.57c-.2-.21-.38-.42-.56-.63l-.22-.26c-.23-.27.41.55.17.21-.11-.16-.23-.31-.33-.47a2.5,2.5,0,0,0-4.32,2.52Z"/><rect class="cls-10" x="358" y="314.89" width="40" height="25.6" rx="5"/><rect class="cls-10" x="454" y="345.29" width="40" height="25.6" rx="5"/><text class="cls-11" transform="translate(467.03 366.18) scale(1.09 1)">.</text><rect class="cls-10" x="358" y="345.29" width="88" height="25.6" rx="5"/><text class="cls-12" transform="translate(391.21 366.86) scale(1.09 1)">0</text><text class="cls-12" transform="translate(369.24 337.06) scale(1.09 1)">1</text><rect class="cls-10" x="406" y="314.89" width="40" height="25.6" rx="5"/><text class="cls-12" transform="translate(416.3 337.06) scale(1.09 1)">2</text><rect class="cls-10" x="454" y="314.89" width="40" height="25.6" rx="5"/><text class="cls-12" transform="translate(464.19 337.06) scale(1.09 1)">3</text><rect class="cls-10" x="454" y="284.49" width="40" height="25.6" rx="5"/><text class="cls-12" transform="translate(464 306.66) scale(1.09 1)">6</text><rect class="cls-10" x="454" y="254.09" width="40" height="25.6" rx="5"/><text class="cls-12" transform="translate(464.15 276.26) scale(1.09 1)">9</text><rect class="cls-10" x="406" y="284.49" width="40" height="25.6" rx="5"/><text class="cls-12" transform="translate(416.21 306.66) scale(1.09 1)">5</text><rect class="cls-10" x="358" y="284.49" width="40" height="25.6" rx="5"/><text class="cls-12" transform="translate(367.7 306.66) scale(1.09 1)">4</text><rect class="cls-10" x="358" y="254.09" width="40" height="25.6" rx="5"/><text class="cls-12" transform="translate(368.98 276.26) scale(1.09 1)">7</text><rect class="cls-10" x="406" y="254.09" width="40" height="25.6" rx="5"/><text class="cls-12" transform="translate(415.7 276.26) scale(1.09 1)">8</text><rect class="cls-13" x="502" y="314.89" width="40" height="56" rx="5"/><text class="cls-12" transform="translate(511.3 350.26) scale(1.09 1)">=</text><rect class="cls-14" x="502" y="284.49" width="40" height="25.6" rx="5"/><text class="cls-12" transform="translate(511.1 304.66) scale(1.09 1)">+</text><rect class="cls-14" x="502" y="254.09" width="40" height="25.6" rx="5"/><line class="cls-15" x1="513.8" y1="266.89" x2="530.2" y2="266.89"/><rect class="cls-14" x="502" y="223.69" width="40" height="25.6" rx="5"/><line class="cls-16" x1="515.28" y1="241.2" x2="528.72" y2="231.79"/><line class="cls-16" x1="528.72" y1="241.2" x2="515.28" y2="231.79"/><rect class="cls-14" x="454" y="223.69" width="40" height="25.6" rx="5"/><line class="cls-16" x1="465.8" y1="236.49" x2="482.2" y2="236.49"/><ellipse class="cls-4" cx="474" cy="231.69" rx="2" ry="1.6"/><ellipse class="cls-4" cx="474" cy="241.29" rx="2" ry="1.6"/><rect class="cls-14" x="406" y="223.69" width="40" height="25.6" rx="5"/><line class="cls-16" x1="419.28" y1="241.2" x2="432.72" y2="231.79"/><ellipse class="cls-4" cx="430.72" cy="240.22" rx="2" ry="1.6"/><ellipse class="cls-4" cx="421.47" cy="232.7" rx="2" ry="1.6"/><rect class="cls-17" x="358" y="223.69" width="40" height="25.6" rx="5"/><text class="cls-18" transform="translate(364.6 241.68) scale(1.09 1)">A<tspan class="cls-19" x="11.65" y="0">C</tspan></text><path class="cls-20" d="M496.33,76.63l-34-31.25L563.29,44l74.14,68.51-46.14.54c2.39-10.91-21-25.76-41.54-33.75C528.6,71.08,503.22,66.26,496.33,76.63Z"/><path class="cls-20" d="M585,113.68c2.22-7.24-12.84-19.67-37.27-29.19-23-9-43.67-9.94-47-3.11l-13.61,35.49c7.13-1.21,24.87-1.46,45.52,7.57,21.35,9.34,34.89,18.66,38.72,24.74Z"/><ellipse class="cls-10" cx="617.21" cy="125.86" rx="7.2" ry="4.32"/><ellipse class="cls-20" cx="617.21" cy="134.2" rx="4.68" ry="3.12"/><path class="cls-13" d="M619.25,138l4.56,38a10.62,10.62,0,0,1-11.28,0l3.12-38Z"/><line class="cls-21" x1="617.21" y1="112.68" x2="617.21" y2="121.55"/><path class="cls-22" d="M387.87,41.71c1.32-.26,5.31-.49,8.37-3.58s3.37-7.09,3.63-8.42c.28,1.34.61,5.36,3.6,8.37s7.07,3.36,8.4,3.63c-1.32.27-5.38.59-8.41,3.6s-3.33,7.08-3.59,8.4c-.27-1.32-.59-5.37-3.62-8.41S389.19,42,387.87,41.71Z"/><path class="cls-23" d="M246.23,284.49c2.19-.43,8.84-.81,13.94-6s5.62-11.83,6.06-14c.45,2.24,1,8.92,6,13.95s11.77,5.6,14,6.05c-2.21.45-9,1-14,6s-5.54,11.8-6,14c-.45-2.2-1-8.95-6-14S248.43,284.94,246.23,284.49Z"/><path class="cls-24" d="M553.21,231c3.51-.7,14.15-1.31,22.32-9.55,8-8.09,9-18.92,9.68-22.45.73,3.57,1.63,14.27,9.6,22.32,8.14,8.23,18.85,8.95,22.4,9.68-3.53.71-14.34,1.57-22.43,9.6s-8.87,18.88-9.57,22.4c-.71-3.53-1.57-14.32-9.65-22.43S556.74,231.73,553.21,231Z"/><path class="cls-25" d="M615.64,350.23a9.44,9.44,0,0,0,5.58-2.39,10,10,0,0,0,2.42-5.61,9.86,9.86,0,0,0,2.4,5.58,9.55,9.55,0,0,0,5.6,2.42,9.84,9.84,0,0,0-5.61,2.4,9.55,9.55,0,0,0-2.39,5.6,9.82,9.82,0,0,0-2.41-5.61A9.6,9.6,0,0,0,615.64,350.23Z"/><path class="cls-26" d="M444.45,78.94A9.35,9.35,0,0,0,450,76.56a10,10,0,0,0,2.42-5.62,9.84,9.84,0,0,0,2.4,5.58,9.53,9.53,0,0,0,5.6,2.42,9.91,9.91,0,0,0-5.61,2.4,9.48,9.48,0,0,0-2.39,5.6,9.77,9.77,0,0,0-2.41-5.6A9.63,9.63,0,0,0,444.45,78.94Z"/><path class="cls-27" d="M276.65,96.35c2.2-.44,8.85-.82,14-6s5.62-11.83,6-14c.46,2.23,1,8.91,6,14s11.78,5.59,14,6c-2.2.44-9,1-14,6s-5.55,11.79-6,14c-.44-2.21-1-8.95-6-14S278.86,96.79,276.65,96.35Z"/><path class="cls-28" d="M296.65,200.14a9.35,9.35,0,0,0,5.58-2.38,9.83,9.83,0,0,0,2.42-5.62,9.91,9.91,0,0,0,2.4,5.58,9.58,9.58,0,0,0,5.6,2.42,9.89,9.89,0,0,0-5.6,2.4,9.52,9.52,0,0,0-2.4,5.6,9.73,9.73,0,0,0-2.41-5.6A9.58,9.58,0,0,0,296.65,200.14Z"/><path class="cls-29" d="M525,418.9a9.38,9.38,0,0,0,5.58-2.39A9.83,9.83,0,0,0,533,410.9a9.86,9.86,0,0,0,2.4,5.58,9.55,9.55,0,0,0,5.6,2.42,9.86,9.86,0,0,0-5.61,2.4,9.55,9.55,0,0,0-2.39,5.6,9.82,9.82,0,0,0-2.41-5.61A9.67,9.67,0,0,0,525,418.9Z"/></g></svg>