<svg xmlns="http://www.w3.org/2000/svg" viewBox="0 0 900 550"><defs><style>.cls-1{fill:#e8cbff;}.cls-15,.cls-2,.cls-5,.cls-7{fill:none;}.cls-2{stroke:#fff;}.cls-10,.cls-13,.cls-14,.cls-15,.cls-16,.cls-17,.cls-2,.cls-20,.cls-21,.cls-22,.cls-23,.cls-24,.cls-25,.cls-3,.cls-5,.cls-7,.cls-9{stroke-miterlimit:10;}.cls-10,.cls-13,.cls-14,.cls-17,.cls-2,.cls-20,.cls-21,.cls-5,.cls-7{stroke-width:2px;}.cls-3{fill:#9fc;}.cls-10,.cls-13,.cls-14,.cls-15,.cls-16,.cls-17,.cls-20,.cls-21,.cls-22,.cls-23,.cls-24,.cls-25,.cls-3,.cls-5,.cls-9{stroke:#231f20;}.cls-20,.cls-4,.cls-9{fill:#231f20;}.cls-6{fill:#ff99d6;}.cls-7{stroke:#000;}.cls-8{fill:#fbe5ff;}.cls-10{fill:#ffe799;}.cls-11{font-size:36px;}.cls-11,.cls-12{font-family:LexendMega-Medium, Lexend Mega;font-weight:500;}.cls-12{font-size:32px;}.cls-13{fill:#9f9;}.cls-14{fill:#99c0ff;}.cls-15,.cls-16{stroke-width:3.5px;}.cls-17,.cls-25{fill:#ff99a3;}.cls-18{font-size:18px;font-family:LexendMega-ExtraBold, Lexend Mega;font-weight:800;letter-spacing:-0.07em;}.cls-19{letter-spacing:-0.05em;}.cls-21{fill:#fff;}.cls-22{fill:#fff9e5;}.cls-23{fill:#f199ff;}.cls-24{fill:#99faff;}</style></defs><g id="Layer_2" data-name="Layer 2"><rect class="cls-1" width="900" height="550"/><path class="cls-2" d="M-1,539.89,9.18,550.05"/><path class="cls-2" d="M-.79,469.26c31.3,31.11,50.09,50,81.62,81"/><path class="cls-2" d="M-.79,397.77c56.62,55,96.85,97.21,152.69,152.55"/><line class="cls-2" x1="206.16" y1="535.91" x2="192.65" y2="549.93"/><path class="cls-2" d="M-5.06,323.3C64,394.91,220,549.65,220,549.65"/><line class="cls-2" x1="-0.79" y1="389.43" x2="29.75" y2="358.99"/><path class="cls-2" d="M-1.36,460.62C22.76,436.16,41,418.91,65.45,393.81"/><path class="cls-2" d="M-.73,530.21c36.41-36,65.73-65.3,101.2-101.38"/><path class="cls-2" d="M136.14,464.5C105,493.91,79.7,518.92,50.91,549.42"/><path class="cls-2" d="M172.42,500.78c-18,17.81-32.14,31.9-50,49.84"/><path class="cls-2" d="M900.22,9.51,890-.65"/><path class="cls-2" d="M900,80.13c-31.29-31.1-50.09-50-81.62-81"/><path class="cls-2" d="M900,151.63c-56.62-55-96.85-97.21-152.69-152.55"/><line class="cls-2" x1="693.06" y1="13.49" x2="706.57" y2="-0.53"/><path class="cls-2" d="M904.28,226.1c-69.06-71.61-225-226.35-225-226.35"/><line class="cls-2" x1="900.01" y1="159.97" x2="869.47" y2="190.4"/><path class="cls-2" d="M900.58,88.78c-24.12,24.46-42.36,41.71-66.81,66.81"/><path class="cls-2" d="M900,19.19c-36.41,36-65.73,65.3-101.2,101.38"/><path class="cls-2" d="M763.08,84.9C794.22,55.49,819.52,30.48,848.31,0"/><path class="cls-2" d="M726.8,48.62c18-17.81,32.15-31.9,50-49.84"/></g><g id="Layer_1" data-name="Layer 1"><polygon class="cls-3" points="306.96 415.25 315.05 447.56 338.21 423.62 329.06 455.65 361.09 446.5 337.14 469.66 369.46 477.75 337.14 485.84 361.09 509 329.06 499.85 338.21 531.87 315.05 507.93 306.96 540.25 298.87 507.93 275.71 531.87 284.86 499.85 252.83 509 276.77 485.84 244.46 477.75 276.77 469.66 252.83 446.5 284.86 455.65 275.71 423.62 298.87 447.56 306.96 415.25"/><rect class="cls-4" x="308.96" y="149.72" width="300" height="350" rx="25"/><rect class="cls-5" x="308.96" y="149.72" width="300" height="350" rx="25"/><rect class="cls-6" x="306.96" y="147.72" width="300" height="350" rx="25"/><rect class="cls-7" x="306.96" y="147.72" width="300" height="350" rx="25"/><rect class="cls-4" x="338.96" y="179.72" width="240" height="70" rx="12"/><rect class="cls-5" x="338.96" y="179.72" width="240" height="70" rx="12"/><rect class="cls-8" x="336.96" y="177.72" width="240" height="70" rx="12"/><rect class="cls-5" x="336.96" y="177.72" width="240" height="70" rx="12"/><rect class="cls-9" x="401.96" y="200.22" width="10" height="25" rx="5"/><rect class="cls-9" x="501.96" y="200.22" width="10" height="25" rx="5"/><path class="cls-4" d="M447.3,227.41a14.51,14.51,0,0,0,6,5.48,8.92,8.92,0,0,0,6.52.45,11.58,11.58,0,0,0,4.74-3.19,14.68,14.68,0,0,0,2-2.74,2.5,2.5,0,0,0-4.32-2.52c-.08.15-.17.3-.26.44l-.31.47-.24.32c-.21.3.38-.46,0-.05a14.14,14.14,0,0,1-1.3,1.38c-.07.05-.3.32-.38.32s.41-.29.17-.13l-.21.15a7.38,7.38,0,0,1-1,.59c-.1.05-.59.23-.27.14s-.22.06-.3.08a5.36,5.36,0,0,1-.54.14l-.28,0c.18,0,.41,0,.09,0h-.68l-.28,0s.46.1.19,0-.78-.19-1.16-.32.34.18-.08,0l-.48-.25c-.34-.19-.65-.43-1-.63s.15.12.16.12a1.56,1.56,0,0,1-.2-.16l-.39-.33q-.39-.34-.75-.72c-.24-.25-.48-.52-.7-.79l-.27-.32c-.25-.3.37.51.11.13-.14-.19-.28-.38-.41-.58a2.5,2.5,0,1,0-4.32,2.52Z"/><rect class="cls-10" x="341.96" y="394.72" width="50" height="32" rx="5"/><rect class="cls-10" x="461.96" y="432.72" width="50" height="32" rx="5"/><text class="cls-11" transform="translate(478.24 458.83) scale(1.09 1)">.</text><rect class="cls-10" x="341.96" y="432.72" width="110" height="32" rx="5"/><text class="cls-12" transform="translate(383.47 459.68) scale(1.09 1)">0</text><text class="cls-12" transform="translate(356.01 422.42) scale(1.09 1)">1</text><rect class="cls-10" x="401.96" y="394.72" width="50" height="32" rx="5"/><text class="cls-12" transform="translate(414.84 422.42) scale(1.09 1)">2</text><rect class="cls-10" x="461.96" y="394.72" width="50" height="32" rx="5"/><text class="cls-12" transform="translate(474.7 422.42) scale(1.09 1)">3</text><rect class="cls-10" x="461.96" y="356.72" width="50" height="32" rx="5"/><text class="cls-12" transform="translate(474.45 384.42) scale(1.09 1)">6</text><rect class="cls-10" x="461.96" y="318.72" width="50" height="32" rx="5"/><text class="cls-12" transform="translate(474.65 346.42) scale(1.09 1)">9</text><rect class="cls-10" x="401.96" y="356.72" width="50" height="32" rx="5"/><text class="cls-12" transform="translate(414.72 384.42) scale(1.09 1)">5</text><rect class="cls-10" x="341.96" y="356.72" width="50" height="32" rx="5"/><text class="cls-12" transform="translate(354.09 384.42) scale(1.09 1)">4</text><rect class="cls-10" x="341.96" y="318.72" width="50" height="32" rx="5"/><text class="cls-12" transform="translate(355.68 346.42) scale(1.09 1)">7</text><rect class="cls-10" x="401.96" y="318.72" width="50" height="32" rx="5"/><text class="cls-12" transform="translate(414.09 346.42) scale(1.09 1)">8</text><rect class="cls-13" x="521.96" y="394.72" width="50" height="70" rx="5"/><text class="cls-12" transform="translate(533.58 438.93) scale(1.09 1)">=</text><rect class="cls-14" x="521.96" y="356.72" width="50" height="32" rx="5"/><text class="cls-12" transform="translate(533.33 381.93) scale(1.09 1)">+</text><rect class="cls-14" x="521.96" y="318.72" width="50" height="32" rx="5"/><line class="cls-15" x1="536.71" y1="334.72" x2="557.21" y2="334.72"/><rect class="cls-14" x="521.96" y="280.72" width="50" height="32" rx="5"/><line class="cls-16" x1="538.56" y1="302.6" x2="555.36" y2="290.84"/><line class="cls-16" x1="555.36" y1="302.6" x2="538.56" y2="290.84"/><rect class="cls-14" x="461.96" y="280.72" width="50" height="32" rx="5"/><line class="cls-16" x1="476.71" y1="296.72" x2="497.21" y2="296.72"/><ellipse class="cls-4" cx="486.96" cy="290.72" rx="2.5" ry="2"/><ellipse class="cls-4" cx="486.96" cy="302.72" rx="2.5" ry="2"/><rect class="cls-14" x="401.96" y="280.72" width="50" height="32" rx="5"/><line class="cls-16" x1="418.56" y1="302.6" x2="435.36" y2="290.84"/><ellipse class="cls-4" cx="432.86" cy="301.38" rx="2.5" ry="2"/><ellipse class="cls-4" cx="421.3" cy="291.97" rx="2.5" ry="2"/><rect class="cls-17" x="341.96" y="280.72" width="50" height="32" rx="5"/><text class="cls-18" transform="translate(350.2 303.19) scale(1.09 1)">A<tspan class="cls-19" x="14.56" y="0">C</tspan></text><path class="cls-20" d="M514.9,96.89,472.43,57.82,598.59,56.1l92.68,85.63-57.67.68c3-13.63-26.26-32.2-51.93-42.18C555.23,90,523.51,83.92,514.9,96.89Z"/><path class="cls-20" d="M625.73,143.2c2.77-9-16.05-24.59-46.59-36.49-28.78-11.21-54.59-12.42-58.72-3.89l-17,44.37c8.92-1.51,31.09-1.83,56.91,9.46,26.68,11.67,43.61,23.33,48.4,30.92Z"/><ellipse class="cls-10" cx="666" cy="158.43" rx="8.99" ry="5.4"/><ellipse class="cls-20" cx="666" cy="168.85" rx="5.85" ry="3.9"/><path class="cls-13" d="M668.55,173.57l5.69,47.52a13.24,13.24,0,0,1-14.09,0l3.9-47.52Z"/><line class="cls-21" x1="666" y1="141.94" x2="666" y2="153.03"/><path class="cls-22" d="M371.24,53.24c1.64-.33,6.63-.61,10.46-4.47s4.21-8.87,4.54-10.53c.34,1.68.76,6.69,4.5,10.46s8.83,4.2,10.5,4.54c-1.66.33-6.72.74-10.52,4.5s-4.15,8.85-4.48,10.5c-.34-1.65-.74-6.71-4.53-10.51S372.89,53.57,371.24,53.24Z"/><path class="cls-23" d="M211,356.72c2.75-.55,11.06-1,17.44-7.46s7-14.79,7.56-17.54c.57,2.79,1.28,11.14,7.5,17.43s14.72,7,17.5,7.57c-2.76.55-11.2,1.22-17.52,7.5S236.57,379,236,381.72c-.55-2.76-1.22-11.19-7.54-17.53S213.78,357.27,211,356.72Z"/><path class="cls-24" d="M586,289.87c4.39-.87,17.68-1.63,27.89-11.93,10-10.11,11.23-23.66,12.11-28.07.91,4.47,2,17.84,12,27.9,10.18,10.29,23.55,11.19,28,12.1-4.42.89-17.93,2-28,12-10.27,10.2-11.08,23.6-12,28-.89-4.41-2-17.9-12.07-28S590.41,290.76,586,289.87Z"/><path class="cls-23" d="M649.92,438.93c1.1-.22,4.42-.41,7-3s2.8-5.91,3-7c.23,1.11.51,4.46,3,7s5.89,2.8,7,3c-1.1.22-4.48.49-7,3s-2.77,5.9-3,7c-.22-1.11-.49-4.48-3-7S651,439.15,649.92,438.93Z"/><path class="cls-23" d="M442,99.78c1.1-.22,4.42-.41,7-3s2.81-5.91,3-7c.23,1.11.51,4.46,3,7s5.89,2.8,7,3c-1.11.22-4.48.49-7,3s-2.77,5.9-3,7c-.22-1.11-.49-4.48-3-7S443.06,100,442,99.78Z"/><path class="cls-25" d="M244.46,122.24c2.74-.55,11-1,17.44-7.46s7-14.79,7.56-17.54c.57,2.79,1.28,11.15,7.5,17.43s14.72,7,17.5,7.57c-2.76.55-11.2,1.23-17.52,7.5s-6.93,14.75-7.48,17.5c-.56-2.76-1.23-11.19-7.54-17.52S247.22,122.79,244.46,122.24Z"/><path class="cls-23" d="M274.46,251.28c1.1-.22,4.42-.41,7-3s2.81-5.92,3-7c.23,1.12.51,4.46,3,7s5.89,2.8,7,3c-1.11.22-4.48.49-7,3s-2.77,5.9-3,7c-.22-1.1-.49-4.47-3-7S275.56,251.5,274.46,251.28Z"/></g></svg>