<svg xmlns="http://www.w3.org/2000/svg" viewBox="0 0 990 600"><defs><style>.cls-1,.cls-21{fill:#f3e6ff;}.cls-13,.cls-2,.cls-22,.cls-9{fill:#231f20;}.cls-19,.cls-3{fill:none;}.cls-10,.cls-11,.cls-12,.cls-13,.cls-14,.cls-15,.cls-16,.cls-17,.cls-18,.cls-19,.cls-21,.cls-22,.cls-23,.cls-3,.cls-8,.cls-9{stroke:#231f20;stroke-miterlimit:10;}.cls-11,.cls-12,.cls-14,.cls-15,.cls-16,.cls-17,.cls-18,.cls-21,.cls-22,.cls-23,.cls-3,.cls-8{stroke-width:5px;}.cls-17,.cls-4{fill:#f199ff;}.cls-5,.cls-8{fill:#9f9;}.cls-16,.cls-6{fill:#ffe799;}.cls-11,.cls-7{fill:#99faff;}.cls-10{fill:#e6ffe6;stroke-width:3px;}.cls-12{fill:#e5feff;}.cls-13{stroke-width:2px;}.cls-14{fill:#fff;}.cls-15{fill:#fff8e6;}.cls-18{fill:#fcebff;}.cls-19{stroke-width:4px;}.cls-20,.cls-23{fill:#ddb2ff;}</style></defs><g id="Layer_2" data-name="Layer 2"><rect class="cls-1" width="990" height="600"/></g><g id="Layer_1" data-name="Layer 1"><path class="cls-2" d="M477.87,110.94A171.14,171.14,0,0,0,306.73,282.08H341c0-9,1-58.21,40.78-97.49,39-38.41,86.76-39.41,96.13-39.42Z"/><path class="cls-3" d="M477.87,110.94A171.14,171.14,0,0,0,306.73,282.08H341c0-9,1-58.21,40.78-97.49,39-38.41,86.76-39.41,96.13-39.42Z"/><path class="cls-4" d="M472.87,105.94A171.14,171.14,0,0,0,301.73,277.08H336c0-9,1-58.21,40.78-97.49,39-38.41,86.76-39.41,96.13-39.42Z"/><path class="cls-3" d="M472.87,105.94A171.14,171.14,0,0,0,301.73,277.08H336c0-9,1-58.21,40.78-97.49,39-38.41,86.76-39.41,96.13-39.42Z"/><path class="cls-2" d="M693.27,281.91A171.14,171.14,0,0,0,522.13,110.78V145c9.1,0,57.81.93,97,40.32C658.09,224.43,659,272.71,659,281.91Z"/><path class="cls-3" d="M693.27,281.91A171.14,171.14,0,0,0,522.13,110.78V145c9.1,0,57.81.93,97,40.32C658.09,224.43,659,272.71,659,281.91Z"/><path class="cls-5" d="M688.27,276.91A171.14,171.14,0,0,0,517.13,105.78V140c9.1,0,57.81.93,97,40.32C653.09,219.43,654,267.71,654,276.91Z"/><path class="cls-3" d="M688.27,276.91A171.14,171.14,0,0,0,517.13,105.78V140c9.1,0,57.81.93,97,40.32C653.09,219.43,654,267.71,654,276.91Z"/><path class="cls-2" d="M476.87,499.27A171.14,171.14,0,0,1,305.73,328.14H340c0,9.67,1.13,56.65,38.64,95.32C418,464,467.91,465,476.87,465.05Z"/><path class="cls-3" d="M476.87,499.27A171.14,171.14,0,0,1,305.73,328.14H340c0,9.67,1.13,56.65,38.64,95.32C418,464,467.91,465,476.87,465.05Z"/><path class="cls-6" d="M472.87,492.27A171.14,171.14,0,0,1,301.73,321.14H336c0,9.67,1.13,56.65,38.64,95.32C414,457,463.91,458,472.87,458.05Z"/><path class="cls-3" d="M472.87,492.27A171.14,171.14,0,0,1,301.73,321.14H336c0,9.67,1.13,56.65,38.64,95.32C414,457,463.91,458,472.87,458.05Z"/><path class="cls-2" d="M520.73,499.22A171.13,171.13,0,0,0,691.86,328.09H657.64c0,9.35-1,57.21-39.49,96.18C578.88,464.05,529.78,465,520.73,465Z"/><path class="cls-3" d="M520.73,499.22A171.13,171.13,0,0,0,691.86,328.09H657.64c0,9.35-1,57.21-39.49,96.18C578.88,464.05,529.78,465,520.73,465Z"/><path class="cls-7" d="M515.73,494.22A171.13,171.13,0,0,0,686.86,323.09H652.64c0,9.35-1,57.21-39.49,96.18C573.88,459.05,524.78,460,515.73,460Z"/><path class="cls-3" d="M515.73,494.22A171.13,171.13,0,0,0,686.86,323.09H652.64c0,9.35-1,57.21-39.49,96.18C573.88,459.05,524.78,460,515.73,460Z"/><path class="cls-8" d="M748.45,92.73c-19,23.16-35.27,78.39-11.93,81.06,5.49.62,10-2.9,19.52-16.42,8.62-12.23,31.23-14.3,38.76-14.3s30,1.87,38.49,14.3c9.58,14,14.84,17.3,21.42,16.49,21.91-2.74,5.07-58.2-15.14-81.13-4.66-5.18-11.12-8.2-18.67-5.83-13.34,4.13-38.59,4.51-52.75,0A18.24,18.24,0,0,0,748.45,92.73Z"/><circle class="cls-9" cx="812.6" cy="115.75" r="3.89"/><circle class="cls-9" cx="822.88" cy="105.66" r="3.89"/><circle class="cls-9" cx="822.88" cy="125.99" r="3.89"/><circle class="cls-9" cx="832.99" cy="115.75" r="3.89"/><path class="cls-10" d="M776.7,120.48h-5v5c0,2.55-2.86,4.29-4.67,4.29a4.65,4.65,0,0,1-4.66-4.29v-5h-5.26a4.67,4.67,0,1,1,0-9.33h5.26v-5.06a4.87,4.87,0,0,1,4.66-4.27c1.84,0,4.67,1.55,4.67,4.3v5h5.07a4.67,4.67,0,1,1,0,9.33Z"/><path class="cls-11" d="M855.3,524.78H735.1a9.7,9.7,0,0,1-10.1-9.29c0-.1,0-.2,0-.29V436.88a10.13,10.13,0,0,1,10.11-10.11H855.3a9.82,9.82,0,0,1,9.71,9.92V515.2a9.33,9.33,0,0,1-9.08,9.58Z"/><path class="cls-12" d="M865,447H725V436.88a10.23,10.23,0,0,1,10.25-10.11H855a10.11,10.11,0,0,1,10,10.11Z"/><path class="cls-13" d="M772.19,463.27l-19.32,19L750.08,485a1.56,1.56,0,0,0,0,2.2h0l19.37,19.28,2.74,2.78c1.42,1.42,3.63-.79,2.19-2.19L755,487.68l-1.61-1.61h0l18.26-17.89,2.77-2.72a1.55,1.55,0,0,0-2.19-2.19Z"/><path class="cls-13" d="M815.86,465.37,835,484.47l1.64,1.65h0l-18,18-2.73,2.75a1.56,1.56,0,0,0,2.19,2.2L837.17,490l2.74-2.74a1.55,1.55,0,0,0,0-2.2h0l-19.1-19.11-2.74-2.74a1.56,1.56,0,1,0-2.21,2.2Z"/><path class="cls-13" d="M803,462l-6.23,15.78L786.81,503l-2.27,5.76a1.57,1.57,0,0,0,3,.77l6.22-15.77,9.86-25.14,2.23-5.76a1.56,1.56,0,1,0-3-.84Z"/><circle class="cls-2" cx="739.08" cy="437.19" r="3.89"/><circle class="cls-2" cx="753.19" cy="437.19" r="3.89"/><circle class="cls-2" cx="766.96" cy="437.19" r="3.89"/><circle class="cls-14" cx="195" cy="467.79" r="65.65"/><circle class="cls-15" cx="195" cy="467.79" r="50.1"/><path class="cls-16" d="M176.19,442.52v50.53a1.56,1.56,0,0,0,2.35,1.34L221,469.12a1.56,1.56,0,0,0,0-2.67l-42.41-25.27A1.56,1.56,0,0,0,176.19,442.52Z"/><path class="cls-17" d="M134.7,68H254.9A9.7,9.7,0,0,1,265,77.33c0,.1,0,.2,0,.29v78.32a10.13,10.13,0,0,1-10.11,10.11H134.7a9.81,9.81,0,0,1-9.71-9.92V77.62A9.33,9.33,0,0,1,134.07,68Q134.39,68,134.7,68Z"/><path class="cls-18" d="M125,145.83H265v10.11a10.23,10.23,0,0,1-10.25,10.11H135a10.11,10.11,0,0,1-10-10.11Z"/><path class="cls-3" d="M174.92,166.05l-7.07,12.89a1.55,1.55,0,0,0,1.36,2.3h49.1a1.55,1.55,0,0,0,1.35-2.33l-7.4-12.86Z"/><path class="cls-2" d="M231.28,192.13h-75c-2.15,0-3.89-1.11-3.89-2.5h0c0-1.38,1.74-2.5,3.89-2.5h75c2.15,0,3.89,1.12,3.89,2.5h0C235.17,191,233.43,192.13,231.28,192.13Z"/><circle class="cls-19" cx="162.35" cy="99.17" r="12.94"/><polygon class="cls-19" points="232.47 96.82 208.36 108.21 230.28 123.4 232.47 96.82"/><rect class="cls-19" x="162.35" y="99.11" width="35.92" height="26.01"/><circle class="cls-2" cx="498.09" cy="186.89" r="12.57"/><circle class="cls-3" cx="498.09" cy="186.89" r="12.57"/><circle class="cls-20" cx="495.09" cy="184.89" r="12.57"/><circle class="cls-3" cx="495.09" cy="184.89" r="12.57"/><circle class="cls-2" cx="498.09" cy="309.2" r="108.9"/><circle class="cls-3" cx="498.09" cy="309.2" r="108.9"/><circle class="cls-20" cx="495.09" cy="307.2" r="108.9"/><circle class="cls-3" cx="495.09" cy="307.2" r="108.9"/><circle class="cls-21" cx="495" cy="307.54" r="83.77"/><rect class="cls-2" x="428.07" y="303.01" width="16.75" height="8.38" rx="4.19"/><rect class="cls-2" x="545.35" y="303.01" width="16.75" height="8.38" rx="4.19"/><rect class="cls-2" x="490.9" y="240.18" width="8.38" height="16.75" rx="4.19"/><rect class="cls-2" x="490.9" y="357.46" width="8.38" height="16.75" rx="4.19"/><path class="cls-22" d="M513.17,311.81l27.88-49.27a1,1,0,0,0-1.3-1.29L490.9,289.12Z"/><path class="cls-14" d="M503.05,323.43l-52.61,29.72a1,1,0,0,1-1.29-1.3l30.3-53.32Z"/><circle class="cls-23" cx="495.09" cy="307.2" r="18.08"/></g></svg>