<svg xmlns="http://www.w3.org/2000/svg" viewBox="0 0 780 600"><defs><style>.cls-1,.cls-14{fill:#ffe799;}.cls-11,.cls-12,.cls-2,.cls-5{fill:none;}.cls-2{stroke:#fff;}.cls-10,.cls-11,.cls-12,.cls-13,.cls-14,.cls-16,.cls-17,.cls-18,.cls-19,.cls-2,.cls-20,.cls-21,.cls-22,.cls-23,.cls-3,.cls-5,.cls-7,.cls-8,.cls-9{stroke-miterlimit:10;}.cls-12,.cls-2,.cls-3{stroke-width:2px;}.cls-18,.cls-3{fill:#ff99a3;}.cls-10,.cls-11,.cls-12,.cls-13,.cls-14,.cls-16,.cls-17,.cls-18,.cls-19,.cls-20,.cls-21,.cls-22,.cls-23,.cls-3,.cls-5,.cls-7,.cls-8,.cls-9{stroke:#231f20;}.cls-23,.cls-4{fill:#231f20;}.cls-5,.cls-7{stroke-width:4px;}.cls-6{fill:#f3e6ff;}.cls-7{fill:#fff;}.cls-8{fill:#ddb2ff;}.cls-10,.cls-11,.cls-13,.cls-14,.cls-21,.cls-22,.cls-23,.cls-8,.cls-9{stroke-width:3px;}.cls-20,.cls-9{fill:#f199ff;}.cls-10{fill:#fcebff;}.cls-13,.cls-19{fill:#99faff;}.cls-15{font-size:30px;font-family:Lexend-Bold, Lexend;font-weight:700;}.cls-16,.cls-21{fill:#9f9;}.cls-17{fill:#9fc;}.cls-22{fill:#e6ffe6;}</style></defs><g id="Layer_2" data-name="Layer 2"><rect class="cls-1" width="780" height="600"/></g><g id="Layer_1" data-name="Layer 1"><path class="cls-2" d="M781.16,6l-8-7.94"/><path class="cls-2" d="M781,61.13c-24.69-24.28-39.51-39-64.38-63.28"/><path class="cls-2" d="M781,117C736.34,74,704.61,41.05,660.57-2.15"/><line class="cls-2" x1="617.78" y1="9.09" x2="628.44" y2="-1.85"/><path class="cls-2" d="M784.36,175.09C729.9,119.18,606.89-1.63,606.89-1.63"/><line class="cls-2" x1="781" y1="123.46" x2="756.91" y2="147.22"/><path class="cls-2" d="M781.45,67.88C762.42,87,748,100.44,728.75,120"/><path class="cls-2" d="M781,13.55c-28.72,28.1-51.84,51-79.82,79.15"/><path class="cls-2" d="M673,64.85c24.56-23,44.51-42.49,67.22-66.3"/><path class="cls-2" d="M644.39,36.53c14.19-13.91,25.35-24.92,39.45-38.91"/><path class="cls-2" d="M-1.14,593l8,7.94"/><path class="cls-2" d="M-1,537.87c24.68,24.29,39.5,39,64.37,63.28"/><path class="cls-2" d="M-1,482.06C43.67,525,75.4,558,119.44,601.15"/><line class="cls-2" x1="162.23" y1="589.91" x2="151.58" y2="600.85"/><path class="cls-2" d="M-4.35,423.91c54.47,55.92,177.48,176.72,177.48,176.72"/><line class="cls-2" x1="-0.98" y1="475.54" x2="23.1" y2="451.78"/><path class="cls-2" d="M-1.43,531.12C17.59,512,32,498.56,51.26,479"/><path class="cls-2" d="M-.93,585.46c28.72-28.1,51.84-51,79.81-79.15"/><path class="cls-2" d="M107,534.15c-24.56,23-44.51,42.49-67.21,66.31"/><path class="cls-2" d="M135.62,562.48c-14.19,13.9-25.35,24.91-39.44,38.91"/><polygon class="cls-3" points="633.4 363.03 643.11 401.81 670.9 373.08 659.92 411.51 698.36 400.53 669.63 428.32 708.4 438.03 669.63 447.74 698.36 475.53 659.92 464.55 670.9 502.98 643.11 474.25 633.4 513.03 623.7 474.25 595.9 502.98 606.89 464.55 568.45 475.53 597.18 447.74 558.4 438.03 597.18 428.32 568.45 400.53 606.89 411.51 595.9 373.08 623.7 401.81 633.4 363.03"/><path class="cls-4" d="M609,475.83H179.76a34.66,34.66,0,0,1-36.08-33.19l0-1V162a36.22,36.22,0,0,1,36.11-36.11H609a35.06,35.06,0,0,1,34.68,35.43c0,.22,0,.45,0,.68V441.61a33.35,33.35,0,0,1-32.41,34.24C610.48,475.87,609.72,475.86,609,475.83Z"/><path class="cls-5" d="M609,475.83H179.76a34.66,34.66,0,0,1-36.08-33.19l0-1V162a36.22,36.22,0,0,1,36.11-36.11H609a35.06,35.06,0,0,1,34.68,35.43c0,.22,0,.45,0,.68V441.61a33.35,33.35,0,0,1-32.41,34.24C610.48,475.87,609.72,475.86,609,475.83Z"/><path class="cls-6" d="M606,472.83H176.76a34.66,34.66,0,0,1-36.08-33.19l0-1V159a36.22,36.22,0,0,1,36.11-36.11H606a35.06,35.06,0,0,1,34.68,35.43c0,.22,0,.45,0,.68V438.61a33.35,33.35,0,0,1-32.41,34.24C607.48,472.87,606.72,472.86,606,472.83Z"/><path class="cls-5" d="M606,472.83H176.76a34.66,34.66,0,0,1-36.08-33.19l0-1V159a36.22,36.22,0,0,1,36.11-36.11H606a35.06,35.06,0,0,1,34.68,35.43c0,.22,0,.45,0,.68V438.61a33.35,33.35,0,0,1-32.41,34.24C607.48,472.87,606.72,472.86,606,472.83Z"/><path class="cls-7" d="M159.27,437.67v-280c0-9.62,7.48-17.42,16.7-17.42H590.23c9.22,0,16.7,7.8,16.7,17.42V437.67c0,9.63-7.48,17.43-16.7,17.43H176C166.75,455.1,159.27,447.3,159.27,437.67Z"/><circle class="cls-8" cx="624.03" cy="297.44" r="9.37"/><path class="cls-9" d="M426,175.21a45.41,45.41,0,0,0-45.42,45.41h9.08A36.34,36.34,0,0,1,426,184.29Z"/><path class="cls-4" d="M466,217.47a2.52,2.52,0,0,1-2.5-2.2,33.66,33.66,0,0,0-29.85-29.86,2.51,2.51,0,0,1-2.2-2.5,2.54,2.54,0,0,1,2.53-2.56l.28,0a39.06,39.06,0,0,1,34.28,34.28,2.54,2.54,0,0,1-2.51,2.82Z"/><path class="cls-4" d="M466,217a2,2,0,0,1-2-1.77,34.13,34.13,0,0,0-30.29-30.28,2,2,0,0,1-1.76-2v0a2,2,0,0,1,2.26-2A38.33,38.33,0,0,1,468,214.7a2,2,0,0,1-2,2.27Z"/><path class="cls-4" d="M420.57,263.61h-.28A39,39,0,0,1,386,229.32a2.53,2.53,0,0,1,5-.61,33.9,33.9,0,0,0,9.32,19.82,34.78,34.78,0,0,0,20.56,10,2.54,2.54,0,0,1-.34,5.06Z"/><path class="cls-4" d="M420.34,263.1a38.32,38.32,0,0,1-33.84-33.84,2,2,0,0,1,2-2.26h0a2,2,0,0,1,2,1.77,34.38,34.38,0,0,0,9.45,20.1,35,35,0,0,0,20.85,10.18,2,2,0,0,1,1.76,2v0A2,2,0,0,1,420.34,263.1Z"/><path class="cls-4" d="M434,263.61a2.54,2.54,0,0,1-.33-5.06A34.21,34.21,0,0,0,454,248.74a33.8,33.8,0,0,0,9.53-20,2.53,2.53,0,0,1,5,.61,39.06,39.06,0,0,1-34.28,34.28Z"/><path class="cls-4" d="M431.92,261.06a2,2,0,0,1,1.76-2,35,35,0,0,0,20.64-10A34.41,34.41,0,0,0,464,228.77a2,2,0,0,1,2-1.77h0a2,2,0,0,1,2,2.26,38.33,38.33,0,0,1-33.84,33.84,2,2,0,0,1-2.26-2Z"/><path class="cls-9" d="M503.92,166.65H551.4a3.83,3.83,0,0,1,4,3.67v31a4,4,0,0,1-4,4H503.92a3.88,3.88,0,0,1-3.83-3.92v-31a3.69,3.69,0,0,1,3.58-3.79Z"/><path class="cls-10" d="M500.09,197.37h55.3v4a4,4,0,0,1-4,4H504a4,4,0,0,1-3.94-4Z"/><path class="cls-11" d="M519.81,205.36l-2.8,5.09a.62.62,0,0,0,.54.91h19.39a.62.62,0,0,0,.54-.93l-2.92-5.07Z"/><path class="cls-4" d="M542.07,217.43H512.43a1.46,1.46,0,0,1-1.54-1.38h0a1.47,1.47,0,0,1,1.54-1.38h29.64a1.46,1.46,0,0,1,1.53,1.38h0A1.45,1.45,0,0,1,542.07,217.43Z"/><circle class="cls-12" cx="514.84" cy="178.94" r="5.11"/><polygon class="cls-12" points="542.54 178.01 533.01 182.51 541.67 188.51 542.54 178.01"/><rect class="cls-12" x="514.84" y="178.92" width="14.19" height="10.27"/><rect class="cls-13" x="195.71" y="163.02" width="45" height="45"/><rect class="cls-14" x="303.84" y="232.76" width="45" height="45"/><text class="cls-15" transform="translate(209.74 196.49)">1</text><text class="cls-15" transform="translate(317.88 266.22)">2</text><rect class="cls-4" x="317.88" y="183.74" width="30.97" height="3.75" rx="1.87"/><rect class="cls-4" x="257.57" y="162.58" width="91.28" height="3.75" rx="1.87"/><rect class="cls-4" x="257.57" y="173.31" width="91.28" height="3.75" rx="1.87"/><rect class="cls-4" x="257.55" y="183.74" width="53" height="3.75" rx="1.87"/><rect class="cls-4" x="257.55" y="194.36" width="83.21" height="3.75" rx="1.87"/><rect class="cls-4" x="257.55" y="204.99" width="30.97" height="3.75" rx="1.87"/><rect class="cls-4" x="195.06" y="232.18" width="91.28" height="3.75" rx="1.87"/><rect class="cls-4" x="195.06" y="242.91" width="91.28" height="3.75" rx="1.87"/><rect class="cls-4" x="233.35" y="253.33" width="53" height="3.75" rx="1.87"/><rect class="cls-4" x="195.06" y="253.33" width="30.97" height="3.75" rx="1.87"/><rect class="cls-4" x="203.14" y="263.96" width="83.21" height="3.75" rx="1.87"/><rect class="cls-4" x="255.39" y="274.58" width="30.97" height="3.75" rx="1.87"/><path class="cls-4" d="M562.59,237.24h-69.7c-1.46,0-2.65-.84-2.65-1.88h0c0-1,1.19-1.87,2.65-1.87h69.7c1.46,0,2.65.84,2.65,1.87h0C565.24,236.4,564.05,237.24,562.59,237.24Z"/><path class="cls-4" d="M562.59,249.76h-69.7c-1.46,0-2.65-.84-2.65-1.87h0c0-1,1.19-1.88,2.65-1.88h69.7c1.46,0,2.65.84,2.65,1.88h0C565.24,248.92,564.05,249.76,562.59,249.76Z"/><path class="cls-4" d="M556.11,262.29H499.36a2,2,0,0,1-2.16-1.88h0a2,2,0,0,1,2.16-1.87h56.75a2,2,0,0,1,2.16,1.87h0A2,2,0,0,1,556.11,262.29Z"/><path class="cls-4" d="M550.22,274.41h-45a1.8,1.8,0,0,1-1.72-1.88h0a1.8,1.8,0,0,1,1.72-1.87h45a1.79,1.79,0,0,1,1.71,1.87h0A1.8,1.8,0,0,1,550.22,274.41Z"/><rect class="cls-11" x="195.71" y="323.06" width="153.14" height="100.85" rx="5.09"/><path class="cls-16" d="M628.44,194.36c2.74-.54,11-1,17.43-7.45s7-14.79,7.57-17.55c.57,2.79,1.27,11.15,7.5,17.44s14.72,7,17.5,7.56c-2.77.56-11.21,1.23-17.53,7.5s-6.92,14.75-7.47,17.5c-.56-2.76-1.23-11.18-7.55-17.52S631.19,194.92,628.44,194.36Z"/><path class="cls-17" d="M313.36,488.64c2.2-.44,8.84-.82,13.95-6s5.61-11.83,6.05-14c.46,2.23,1,8.92,6,13.95s11.78,5.59,14,6.05c-2.21.44-9,1-14,6s-5.54,11.8-6,14c-.44-2.21-1-8.95-6-14S315.56,489.08,313.36,488.64Z"/><path class="cls-18" d="M101.1,249.76c1.37-.27,5.52-.51,8.71-3.73s3.51-7.39,3.79-8.77c.28,1.4.63,5.58,3.75,8.72s7.36,3.5,8.75,3.78c-1.39.28-5.61.62-8.76,3.75s-3.47,7.38-3.74,8.75c-.28-1.38-.62-5.59-3.78-8.76S102.47,250,101.1,249.76Z"/><path class="cls-19" d="M305.93,86.35c1.1-.21,4.43-.41,7-3s2.81-5.91,3-7c.23,1.12.51,4.46,3,7s5.89,2.8,7,3c-1.1.22-4.48.49-7,3s-2.78,5.9-3,7c-.22-1.1-.49-4.47-3-7S307,86.57,305.93,86.35Z"/><path class="cls-20" d="M106.1,390.83c2.19-.44,8.84-.82,13.94-6s5.62-11.83,6.06-14c.45,2.23,1,8.92,6,13.95s11.77,5.59,14,6.05c-2.21.44-9,1-14,6s-5.54,11.8-6,14c-.45-2.21-1-8.95-6-14S108.3,391.27,106.1,390.83Z"/><path class="cls-8" d="M200.79,323.06h143a5.09,5.09,0,0,1,5.09,5.09v15a0,0,0,0,1,0,0H195.71a0,0,0,0,1,0,0v-15A5.09,5.09,0,0,1,200.79,323.06Z"/><rect class="cls-4" x="209.74" y="331.24" width="83.21" height="3.75" rx="1.87"/><rect class="cls-11" x="209.74" y="354.26" width="6.25" height="6.25"/><rect class="cls-11" x="209.74" y="367.46" width="6.25" height="6.25"/><rect class="cls-11" x="209.74" y="380.67" width="6.25" height="6.25"/><rect class="cls-11" x="209.74" y="393.87" width="6.25" height="6.25"/><rect class="cls-11" x="209.74" y="407.08" width="6.25" height="6.25"/><rect class="cls-4" x="224.42" y="355.51" width="30.97" height="3.75" rx="1.87"/><rect class="cls-4" x="224.42" y="368.71" width="30.97" height="3.75" rx="1.87"/><rect class="cls-4" x="224.42" y="381.92" width="30.97" height="3.75" rx="1.87"/><rect class="cls-4" x="224.42" y="395.12" width="30.97" height="3.75" rx="1.87"/><rect class="cls-4" x="224.42" y="408.33" width="30.97" height="3.75" rx="1.87"/><path class="cls-21" d="M307.85,357h0a4,4,0,0,0,5,1.07h0a4,4,0,0,1,5.74,2.55h0a4,4,0,0,0,4.16,3h0a3.94,3.94,0,0,1,4.2,4.66h0a4,4,0,0,0,2.58,4.46h0a4,4,0,0,1,1.94,6h0a4,4,0,0,0,.54,5.12h0a4,4,0,0,1-.66,6.24h0a4,4,0,0,0-1.59,4.9h0a4,4,0,0,1-3.14,5.44h0a3.94,3.94,0,0,0-3.44,3.82h0a4,4,0,0,1-5.08,3.69h0a4,4,0,0,0-4.7,2.09h0a4,4,0,0,1-6.15,1.31h0a3.94,3.94,0,0,0-5.14,0h0A4,4,0,0,1,296,410h0a4,4,0,0,0-4.7-2.09h0a4,4,0,0,1-5.08-3.69h0a4,4,0,0,0-3.45-3.82h0a4,4,0,0,1-3.14-5.44h0a4,4,0,0,0-1.59-4.9h0a4,4,0,0,1-.65-6.24h0a4,4,0,0,0,.54-5.12h0a4,4,0,0,1,1.94-6h0a4,4,0,0,0,2.57-4.46h0a3.94,3.94,0,0,1,4.2-4.66h0a4,4,0,0,0,4.16-3h0a4,4,0,0,1,5.74-2.55h0a4,4,0,0,0,5-1.07h0A4,4,0,0,1,307.85,357Z"/><circle class="cls-22" cx="304.71" cy="384.22" r="20.63"/><polyline class="cls-11" points="294.87 382.53 302.29 390.83 315.93 378.27"/><path class="cls-8" d="M524.47,368.44l34.32-13.52-75-30.05-75,29.93,34.28,13.52c1.36-8.82,23.07-13.21,40.69-13.3C501.94,355,522.22,358.69,524.47,368.44Z"/><path class="cls-8" d="M447.55,372.62c.42-6,15.22-11,36.19-11.12,19.76-.11,35.45,5.08,36,11.12V403c-5-3-18.15-8.21-36.15-7.39-18.62.86-31.4,3.95-36.06,7.39Z"/><ellipse class="cls-23" cx="429.55" cy="374.91" rx="5.75" ry="3.46"/><ellipse class="cls-23" cx="429.55" cy="381.59" rx="3.74" ry="2.49"/><path class="cls-21" d="M427.93,384.61,424.28,415a8.82,8.82,0,0,0,4.61,1.3,8.56,8.56,0,0,0,4.4-1.3l-2.49-30.4Z"/><line class="cls-11" x1="429.55" y1="363.03" x2="429.55" y2="370.12"/></g></svg>