<svg xmlns="http://www.w3.org/2000/svg" viewBox="0 0 1920 600"><defs><style>.cls-1,.cls-8{fill:none;}.cls-1{stroke:#1c75bc;opacity:0.35;}.cls-1,.cls-10,.cls-11,.cls-13,.cls-2,.cls-3,.cls-4,.cls-5,.cls-6,.cls-7,.cls-8,.cls-9{stroke-miterlimit:10;}.cls-2{fill:#fff;}.cls-10,.cls-11,.cls-13,.cls-2,.cls-3,.cls-4,.cls-5,.cls-6,.cls-7,.cls-8,.cls-9{stroke:#231f20;stroke-width:2px;}.cls-3{fill:#99faff;}.cls-4{fill:#9f9;}.cls-5{fill:#f199ff;}.cls-6{fill:#ffe799;}.cls-12,.cls-7{fill:#231f20;}.cls-9{fill:#ddb2ff;}.cls-10{fill:#e5feff;}.cls-11{fill:#fff8e6;}.cls-13{fill:#e5ffe5;}</style></defs><g id="Layer_2" data-name="Layer 2"><line class="cls-1" y1="49" x2="1920" y2="49"/><line class="cls-1" y1="121" x2="1920" y2="121"/><line class="cls-1" y1="193" x2="1920" y2="193"/><line class="cls-1" y1="265" x2="1920" y2="265"/><line class="cls-1" y1="337" x2="1920" y2="337"/><line class="cls-1" y1="481" x2="1920" y2="481"/><line class="cls-1" y1="409" x2="1920" y2="409"/><line class="cls-1" y1="553" x2="1920" y2="553"/><line class="cls-1" x1="61" x2="61" y2="600"/><line class="cls-1" x1="133" x2="133" y2="600"/><line class="cls-1" x1="205" x2="205" y2="600"/><line class="cls-1" x1="277" x2="277" y2="600"/><line class="cls-1" x1="349" x2="349" y2="600"/><line class="cls-1" x1="421" x2="421" y2="600"/><line class="cls-1" x1="493" x2="493" y2="600"/><line class="cls-1" x1="565" x2="565" y2="600"/><line class="cls-1" x1="637" x2="637" y2="600"/><line class="cls-1" x1="709" x2="709" y2="600"/><line class="cls-1" x1="781" x2="781" y2="600"/><line class="cls-1" x1="853" x2="853" y2="600"/><line class="cls-1" x1="925" x2="925" y2="600"/><line class="cls-1" x1="997" x2="997" y2="600"/><line class="cls-1" x1="1069" x2="1069" y2="600"/><line class="cls-1" x1="1141" x2="1141" y2="600"/><line class="cls-1" x1="1213" x2="1213" y2="600"/><line class="cls-1" x1="1285" x2="1285" y2="600"/><line class="cls-1" x1="1357" x2="1357" y2="600"/><line class="cls-1" x1="1429" x2="1429" y2="600"/><line class="cls-1" x1="1501" x2="1501" y2="600"/><line class="cls-1" x1="1573" x2="1573" y2="600"/><line class="cls-1" x1="1645" x2="1645" y2="600"/><line class="cls-1" x1="1717" x2="1717" y2="600"/><line class="cls-1" x1="1789" x2="1789" y2="600"/><line class="cls-1" x1="1861" x2="1861" y2="600"/></g><g id="Layer_1" data-name="Layer 1"><path class="cls-2" d="M1432.38,236.73c-6.41-1.89-9.6-8-9.47-18a72.26,72.26,0,0,1,2.65-17.7,59.15,59.15,0,0,1,2-5.86c-1.61-.33-3.29-.74-5-1.25l-.93-.29c-2.07-.65-20.34-6.6-25.3-16.11a12,12,0,0,1-.93-9.25c4.79-15.18,32.65-7.47,35.81-6.54l.1,0c2,.58,3.85,1.25,5.62,2a59.7,59.7,0,0,1,1.57-6.14,72.74,72.74,0,0,1,7.41-16.3c5.37-8.52,11.35-11.88,17.76-10l.2.06c15.18,4.78,7.46,32.64,6.53,35.8a60.06,60.06,0,0,1-2,5.87,60.76,60.76,0,0,1,5.94,1.44l.1,0c3.16.94,30.73,9.62,26.49,25a12,12,0,0,1-5.81,7.26c-9.34,5.28-27.9.34-30-.24l-.94-.27c-1.8-.53-3.5-1.12-5.07-1.75-.37,1.9-.84,3.86-1.44,5.88-.94,3.16-9.62,30.73-25,26.49Z"/><path class="cls-3" d="M1451.43,181.93a.19.19,0,0,0,.17.32,49.84,49.84,0,0,1,19.85,1.79c9.64,2.87,20.63,9.35,19.7,12.72s-13.37,2.86-23.48.05a42.94,42.94,0,0,1-17.58-9.32.19.19,0,0,0-.33.16,50,50,0,0,1-1.81,19.79c-2.86,9.64-9.34,20.64-12.71,19.71s-2.86-13.37,0-23.48a43,43,0,0,1,9.26-17.53.2.2,0,0,0-.18-.33,43.09,43.09,0,0,1-19.75-1.76c-10-3.14-20.71-9.51-19.67-12.82s13.8-2.78,23.45.05a50.24,50.24,0,0,1,17.59,9.25.2.2,0,0,0,.32-.19,42.8,42.8,0,0,1,1.75-19.81c3.13-10,9.5-20.72,12.81-19.68s2.79,13.81,0,23.45A50,50,0,0,1,1451.43,181.93Z"/><path class="cls-2" d="M974.64,215.92a12.08,12.08,0,0,1-7.4-6c-7.29-14.18,18-28.33,20.94-29.9a60.32,60.32,0,0,1,5.69-2.69,61.19,61.19,0,0,1-3.24-5.4c-1.56-2.91-14.81-28.71-.9-36.49a12.13,12.13,0,0,1,9.49-.91c10.25,3.1,19.71,19.63,20.75,21.51a59.66,59.66,0,0,1,2.82,5.77,60.94,60.94,0,0,1,5.26-3.15c.75-.4,18.52-9.79,29.28-6.54a11.83,11.83,0,0,1,8.18,14.91c-2.93,10.34-19.67,19.92-21.57,21a57.86,57.86,0,0,1-5.61,2.76,58.75,58.75,0,0,1,3.15,5.4c1,1.93,9.63,19.17,6.35,29.41a12.07,12.07,0,0,1-5.94,7.18,12.21,12.21,0,0,1-9.13.71c-10.75-3.25-20.36-20.91-20.76-21.66a61.37,61.37,0,0,1-2.64-5.54,59.15,59.15,0,0,1-5.54,3.24C1001.91,210.47,984.89,219,974.64,215.92Z"/><path class="cls-4" d="M1012.06,183a.2.2,0,0,0,.1-.36,50.18,50.18,0,0,1-12.71-15.44c-4.76-8.91-7.9-21.34-4.84-23.05s11.5,7.53,16.62,16.73A43.17,43.17,0,0,1,1017,180a.21.21,0,0,0,.37.13,50.13,50.13,0,0,1,15.4-12.67c8.91-4.76,21.34-7.9,23-4.83s-7.53,11.49-16.73,16.62a43.42,43.42,0,0,1-19,5.76.2.2,0,0,0-.11.37,43.35,43.35,0,0,1,12.67,15.34c4.83,9.37,7.84,21.52,4.74,23.11s-11.74-7.89-16.53-16.79A50.27,50.27,0,0,1,1015,188a.21.21,0,0,0-.38-.1,43.07,43.07,0,0,1-15.37,12.72c-9.37,4.83-21.52,7.84-23.11,4.74s7.9-11.74,16.79-16.52A50.15,50.15,0,0,1,1012.06,183Z"/><path class="cls-2" d="M818.1,235.94a10,10,0,0,1-10.22-2.28c-16-15.54-29.56-22.13-51.81-25.18a10,10,0,0,1-5.86-16.83c16-16.64,22.57-30.09,25.19-51.41A10,10,0,0,1,782,132h0a10,10,0,0,1,10.25,2.29c15,14.65,29,21.44,51.76,25a10,10,0,0,1,5.65,16.8c-15.47,16.1-22.23,30.09-25,51.59a10,10,0,0,1-6.61,8.18Z"/><path class="cls-5" d="M757.43,198.57c17.58-18.3,25-33.9,27.9-57.11,16.59,16.2,32.29,23.81,57.18,27.76-17.36,18.08-24.76,34.33-27.67,57.26C798,210.13,782.58,202,757.43,198.57Zm49.93,6.5c1.46-11.47,5.15-19.59,13.83-28.63-12.44-2-20.29-5.78-28.59-13.88-1.42,11.6-5.16,19.4-14,28.56C791.23,192.84,798.94,196.9,807.36,205.07Z"/><path class="cls-2" d="M578.26,234a50,50,0,0,1-15.07-90.92c17.06-10.76,35.15-7.07,37.16-6.61,16.95,3.92,28.47,17.62,29.73,19.17a10,10,0,0,1-10,16c-.32-.07-.63-.16-.94-.26h0s-.55-.17-1.45-.37c-3.15-.72-11.19-2-17.74,1.42-6.22,3.26-8.62,11.2-9.2,13.55-1.24,5-.16,9.84,3.29,14.9s8.89,7.06,12.94,8a24.73,24.73,0,0,0,4,.6,10.23,10.23,0,0,1,2,.25,10,10,0,0,1,2.77,18.37c-.73.42-17.91,10.33-37.09,6Z"/><path class="cls-3" d="M610.73,219.49s-14.47,8.5-30.14,4.76a40,40,0,0,1-12.06-72.74c12.47-7.87,26.16-6.11,29.65-5.31,14,3.25,24.13,15.71,24.13,15.71s-14.56-4.83-27,1.68c-10,5.23-13.37,16.41-14.27,20-.95,3.84-2.34,12.57,4.74,22.94C594.39,219.13,610.73,219.49,610.73,219.49Z"/><circle class="cls-2" cx="1232" cy="184" r="50"/><circle class="cls-6" cx="1232" cy="184" r="40"/><ellipse class="cls-7" cx="1215.86" cy="180.3" rx="4.28" ry="8.24" transform="translate(9.49 415.89) rotate(-19.48)"/><ellipse class="cls-7" cx="1240.89" cy="171.44" rx="4.28" ry="8.24" transform="translate(13.88 423.73) rotate(-19.48)"/><path class="cls-8" d="M1207.57,197.24a26.11,26.11,0,0,0,15.2,10.69,30.64,30.64,0,0,0,17-.82,32.93,32.93,0,0,0,13.83-9.77c3.23-4.29,5.26-12.06,5-18.15"/><path class="cls-2" d="M1362.8,353.63a10,10,0,0,1-9.71-3.46l-15.26-18.58-12.38,10.08a10,10,0,0,1-16.12-5.78l-14.41-71.58a10,10,0,0,1,13.73-11.17l66.95,28.57a10,10,0,0,1,2.48,16.87l-12,10,15.18,18.46a10,10,0,0,1-1.39,14.09l-12.69,10.39A10,10,0,0,1,1362.8,353.63Z"/><path class="cls-9" d="M1371.67,290.9,1352,307.31l21.49,26.12-12.69,10.39-21.58-26.27-20.1,16.37-14.41-71.58Z"/><path class="cls-2" d="M197.26,288.4a10,10,0,0,1,6.08-12.76l84.71-30.09a10,10,0,0,1,12.53,13.36l-35.26,82.31a10,10,0,0,1-18.34.1s-14.07-31.91-14.09-32L202.21,294A10,10,0,0,1,197.26,288.4Z"/><path class="cls-3" d="M257.88,286.4l-20,14.25-31.16-15.59L291.39,255l-35.26,82.31-14-31.81Z"/><path class="cls-2" d="M1810.32,253.24a10,10,0,0,1,10,10.06l-.14,25.8a10,10,0,0,1-3,7.14L1765.63,346a10,10,0,0,1-6.94,2.81,10.22,10.22,0,0,1-2.33-.27A43.5,43.5,0,0,1,1723.89,315a10,10,0,0,1,2.83-9.21L1778,256.15a10,10,0,0,1,6.91-2.81Z"/><path class="cls-7" d="M1810.32,270.89v-7.65h-7.38a7.5,7.5,0,0,0,2,5.43A6.94,6.94,0,0,0,1810.32,270.89Z"/><path class="cls-6" d="M1789.29,274.05a26.13,26.13,0,0,1-4.3-10.71.34.34,0,0,0-.25.11l-45,43.7a33.07,33.07,0,0,0,1.46,4.92,32.57,32.57,0,0,0,2.62,5.32Z"/><path class="cls-5" d="M1739.69,307.15a33.17,33.17,0,0,0,8.76,16.27,34.63,34.63,0,0,0,16.36,9.42c-2,2-4.09,3.94-6.12,5.92a33.45,33.45,0,0,1-25-25.78Z"/><path class="cls-4" d="M1789.29,274.05a33.8,33.8,0,0,0,5.23,6.4,33.4,33.4,0,0,0,5.16,4.07l-45.2,43.83a36,36,0,0,1-6.08-5.08,36.33,36.33,0,0,1-4.63-5.88Q1766.54,295.73,1789.29,274.05Z"/><path class="cls-8" d="M1784.84,263.34a33.37,33.37,0,0,0,8.8,16.24,35.57,35.57,0,0,0,16.68,9.5"/><path class="cls-2" d="M1810.32,289V270.89a6.9,6.9,0,0,1-5.35-2.22,7.46,7.46,0,0,1-2-5.43l-17.67.08a.38.38,0,0,0-.36.46,34.41,34.41,0,0,0,25.31,25.28A.09.09,0,0,0,1810.32,289Z"/><path class="cls-6" d="M1810.22,289.19a.1.1,0,0,0,0-.15,49.38,49.38,0,0,1-5.4-1.84,36.16,36.16,0,0,1-5.1-2.68h0l-45.2,43.83h0a34.74,34.74,0,0,0,5.06,2.71,35.2,35.2,0,0,0,5.27,1.78C1779.82,318.28,1795.25,303.7,1810.22,289.19Z"/><path class="cls-8" d="M1810.18,289l.14-25.8-25.33.1L1733.68,313a33.45,33.45,0,0,0,25,25.78Z"/><path class="cls-2" d="M1572.67,348.14A20.08,20.08,0,0,1,1547,335.87l-3.28-9.36-9,3.17a20.45,20.45,0,0,1-26.08-12.45,19.66,19.66,0,0,1,12-25.06l9.68-3.42-3.31-9.34a20,20,0,0,1,12.18-25.51l.16-.05a20.08,20.08,0,0,1,25.6,12.22l3.27,9.25,9.36-3.33a20,20,0,0,1,25.47,12.13l0,.13a20,20,0,0,1-12.1,25.43l-9.49,3.37,3.37,9.43a20.05,20.05,0,0,1-12.19,25.65Z"/><path class="cls-4" d="M1587.65,300.26,1568.73,307l6.74,18.86a10,10,0,0,1-6.1,12.85h0a10.07,10.07,0,0,1-12.86-6.16l-6.61-18.81-18.4,6.51a10.44,10.44,0,0,1-13.33-6.35h0a9.64,9.64,0,0,1,5.87-12.3l19.1-6.76-6.64-18.76a10,10,0,0,1,6.09-12.75l.15-.06a10.07,10.07,0,0,1,12.84,6.13l6.62,18.7,18.79-6.69a9.93,9.93,0,0,1,12.69,6l0,.13A9.93,9.93,0,0,1,1587.65,300.26Z"/><path class="cls-2" d="M929.25,342.29A20,20,0,0,1,915,336.38l-7-7-6.72,6.72a20.42,20.42,0,0,1-28.9,0,19.63,19.63,0,0,1,0-27.76l7.25-7.26-7-7a20,20,0,0,1,0-28.27l.1-.1a20.06,20.06,0,0,1,28.38,0l7,6.94,7-7a19.93,19.93,0,0,1,28.21,0l.1.09a20,20,0,0,1,0,28.16l-7.11,7.14,7.1,7.05a20.05,20.05,0,0,1,.05,28.4l-.09.09A19.92,19.92,0,0,1,929.25,342.29Z"/><path class="cls-6" d="M936.34,286.74,922.16,301l14.22,14.11a10.05,10.05,0,0,1,0,14.23l0,0a10.08,10.08,0,0,1-14.27,0l-14.06-14.13L894.24,329a10.43,10.43,0,0,1-14.76,0h0a9.63,9.63,0,0,1,0-13.62l14.32-14.33L879.73,287a10,10,0,0,1,0-14.13l.12-.12a10,10,0,0,1,14.22,0l14,14,14.08-14.13a9.92,9.92,0,0,1,14.05,0l.1.1A9.92,9.92,0,0,1,936.34,286.74Z"/><path class="cls-2" d="M450,352a14.35,14.35,0,0,1-16.34-18.72l22.92-67a14.34,14.34,0,0,1,24.39-4.77l46.5,53.35a14.35,14.35,0,0,1-8.06,23.51Z"/><path class="cls-5" d="M517.44,328.54,448,342.15a4.35,4.35,0,0,1-4.95-5.67l22.92-67a4.35,4.35,0,0,1,7.39-1.45l46.5,53.36A4.35,4.35,0,0,1,517.44,328.54Zm-51.86-5.18,28.51-5.59a1.9,1.9,0,0,0,1.07-3.12l-19.1-21.92a1.9,1.9,0,0,0-3.24.63l-9.41,27.51A1.9,1.9,0,0,0,465.58,323.36Z"/><path class="cls-2" d="M719.79,346.57c-9.54-2.17-13.78-11.1-17-19.29-1.25-3.2-8.91-7-15-8.37S673,317.63,670.38,320c-7.09,6.42-14.16,12-22.78,10.06a17.66,17.66,0,0,1-1.81-.53,17.35,17.35,0,0,1-11.57-14.06c-2.72-16.7,14.64-42.17,27.79-52.37a21.69,21.69,0,0,1,24.37-1.57,49.82,49.82,0,0,0,13,4.62,53.17,53.17,0,0,0,14.19,1.55,21,21,0,0,1,6.36.45A21.54,21.54,0,0,1,734,279.22c7.86,14.44,13.48,45.73,4,60A16.66,16.66,0,0,1,722.16,347,18,18,0,0,1,719.79,346.57Z"/><path class="cls-4" d="M668.14,271c-15.22,11.81-33.29,44.1-19,49.09,3.35,1.18,6.7-.37,14.57-7.5,7.16-6.48,21.61-4.5,26.34-3.42s18.54,5.45,22.08,14.45c4,10.16,6.82,13,11.07,13.39,14.11,1.42,11.48-35.75,2.08-53-2.12-3.9-5.79-6.72-10.88-6.33-9,.7-24.83-2.68-33.06-7.53A11.75,11.75,0,0,0,668.14,271Z"/><circle class="cls-5" cx="705.06" cy="294.58" r="2.5"/><circle class="cls-6" cx="712.94" cy="289.72" r="2.5"/><circle class="cls-3" cx="710.04" cy="302.46" r="2.5"/><circle class="cls-9" cx="717.84" cy="297.49" r="2.5"/><path class="cls-10" d="M681.89,292.43l-3.19-.73-.71,3.16c-.37,1.6-2.41,2.29-3.54,2a3,3,0,0,1-2.31-3.36l.71-3.16-3.24-.74a3,3,0,0,1,1.33-5.85l3.25.74.72-3.17a3.16,3.16,0,0,1,3.51-2c1.15.26,2.74,1.68,2.33,3.37l-.71,3.15,3.18.73a3,3,0,0,1-1.33,5.85Z"/><path class="cls-2" d="M1639.43,232.68a15.63,15.63,0,0,1-8.63-.1,10,10,0,0,1-7-8.1l-2.38-15.84a11.79,11.79,0,0,1-2.36-4.19,11.49,11.49,0,0,1-2.19-3.8,11,11,0,0,1-.62-3.16L1612,197a10,10,0,0,1-4.94-17.91l42.83-32.42a9.77,9.77,0,0,1,3.39-1.67,9.9,9.9,0,0,1,3.76-.3l53.39,6a10,10,0,0,1,4.9,17.93l-16.88,12.72,4,14.48a10,10,0,0,1-11,12.55,51.63,51.63,0,0,0-20.33,1.32l-.12,0a51.63,51.63,0,0,0-18.26,9.29,10,10,0,0,1-3.29,1.74,10,10,0,0,1-2.61,7.41,15.66,15.66,0,0,1-7.22,4.46Z"/><path class="cls-9" d="M1689.7,175.43l19.63-14.79-53.39-6-42.84,32.42,24.41,2.69c-.69-5.9,12.47-12.55,23.76-15.71C1672.9,170.81,1686.59,169.58,1689.7,175.43Z"/><path class="cls-9" d="M1641.13,191.69c-.8-3.95,7.82-9.75,21.26-13.52,12.66-3.55,23.65-3,25,.8l5.36,19.51c-3.71-1-13.1-2.07-24.5,1.63-11.8,3.84-19.46,8.07-21.8,11.09Z"/><ellipse class="cls-7" cx="1629.98" cy="196.34" rx="3.83" ry="2.3" transform="translate(6.23 438.88) rotate(-15.36)"/><ellipse class="cls-7" cx="1631.16" cy="200.62" rx="2.49" ry="1.66" transform="translate(5.14 439.35) rotate(-15.36)"/><path class="cls-4" d="M1630.64,202.84l3,20.16a5.79,5.79,0,0,0,3.19,0,5.67,5.67,0,0,0,2.6-1.61l-7-19.07Z"/><line class="cls-2" x1="1627.88" y1="188.71" x2="1629.14" y2="193.26"/><circle class="cls-2" cx="368" cy="184" r="42.2"/><circle class="cls-11" cx="368" cy="184" r="32.2"/><polygon class="cls-6" points="350.7 170.93 362.44 204.96 385.13 178.09 350.7 170.93"/><path class="cls-2" d="M1077.25,332.92a16.16,16.16,0,0,1-12.5-19.42l11.17-49.09A16.52,16.52,0,0,1,1095.68,252L1171,269.14a16.39,16.39,0,0,1,12.18,19.7L1172,337.92a16,16,0,0,1-19.43,12.15Z"/><path class="cls-3" d="M1154.79,340.32l-75.32-17.15a6.24,6.24,0,0,1-5-7.45l11.17-49.09a6.53,6.53,0,0,1,7.79-4.89l75.32,17.15a6.31,6.31,0,0,1,4.65,7.73l-11.18,49.08A6,6,0,0,1,1154.79,340.32Z"/><path class="cls-10" d="M1172,292.91l-87.75-20,1.43-6.3a6.58,6.58,0,0,1,7.87-4.87l75,17.08a6.51,6.51,0,0,1,4.86,7.78Z"/><path class="cls-12" d="M1111.52,289.89,1096.7,299l-2.13,1.32a1,1,0,0,0-.36,1.37l9.39,14.84,1.32,2.1c.69,1.09,2.42.08,1.73-1l-9.39-14.85-1.32-2.09-.36,1.36,14.82-9.12,2.13-1.32c1.09-.67.09-2.4-1-1.72Z"/><path class="cls-12" d="M1138.55,297.43l9.24,14.7,1.33,2.11.36-1.37-14.69,9.25-2.12,1.33c-1.08.68-.08,2.41,1,1.73l14.7-9.25,2.11-1.33a1,1,0,0,0,.36-1.37l-9.25-14.7-1.33-2.11c-.68-1.09-2.41-.08-1.72,1Z"/><path class="cls-12" d="M1131,293.49l-6.15,9-9.8,14.34-2.25,3.29c-.73,1.07,1,2.07,1.73,1l6.15-9,9.8-14.33,2.25-3.29c.73-1.07-1-2.07-1.73-1Z"/><circle class="cls-5" cx="1094.47" cy="268.84" r="2.5"/><circle class="cls-6" cx="1103.3" cy="270.85" r="2.5"/><circle class="cls-4" cx="1111.93" cy="272.82" r="2.5"/><path class="cls-2" d="M207.84,202.81,219,174.57a10,10,0,0,0-1.85-10.33l-23.84-26.63a10,10,0,0,0-9.87-3L153.64,142a10,10,0,0,0-7,6.23L145.28,152l-19.78-7.33a10,10,0,0,0-10.14,1.93L88.84,170.31a10,10,0,0,0-3,10l7.83,29.4a10,10,0,0,0,6,6.73l28.24,11.13a10,10,0,0,0,10.33-1.85l19-17,4.42,4.94a10,10,0,0,0,10,3l29.4-7.83A10,10,0,0,0,207.84,202.81Z"/><polygon class="cls-13" points="145.4 180.46 169.14 206.98 198.54 199.15 209.67 170.91 185.83 144.28 156.05 151.69 145.4 180.46"/><polyline class="cls-8" points="185.83 144.28 174.64 172.45 145.4 180.46 174.64 172.45 198.54 199.15"/><ellipse class="cls-7" cx="159.08" cy="185.27" rx="1.5" ry="2.73" transform="translate(-68.47 273.89) rotate(-70.63)"/><ellipse class="cls-7" cx="171.88" cy="189.77" rx="1.5" ry="2.73" transform="matrix(0.33, -0.94, 0.94, 0.33, -64.16, 288.97)"/><ellipse class="cls-7" cx="184.69" cy="194.28" rx="1.5" ry="2.73" transform="translate(-59.85 304.06) rotate(-70.63)"/><ellipse class="cls-7" cx="165.62" cy="162.37" rx="2.73" ry="1.5" transform="translate(-66.08 151.86) rotate(-41.83)"/><ellipse class="cls-7" cx="173.18" cy="181.42" rx="1.5" ry="2.73" transform="matrix(0.33, -0.94, 0.94, 0.33, -55.42, 284.62)"/><ellipse class="cls-7" cx="170.56" cy="198.09" rx="1.5" ry="2.73" transform="translate(-72.9 293.28) rotate(-70.63)"/><ellipse class="cls-7" cx="195.23" cy="184.84" rx="1.5" ry="2.73" transform="translate(-36.68 48.83) rotate(-13.04)"/><ellipse class="cls-7" cx="183.65" cy="172.06" rx="1.5" ry="2.73" transform="translate(-34.09 45.88) rotate(-13.04)"/><ellipse class="cls-7" cx="201.16" cy="170.69" rx="1.5" ry="2.73" transform="translate(-33.33 49.8) rotate(-13.04)"/><ellipse class="cls-7" cx="189.1" cy="158.4" rx="1.5" ry="2.73" transform="translate(-30.87 46.76) rotate(-13.04)"/><polygon class="cls-13" points="122.03 154.02 95.51 177.76 103.34 207.16 131.58 218.29 158.21 194.45 150.81 164.67 122.03 154.02"/><polyline class="cls-8" points="103.34 207.16 130.04 183.26 122.03 154.02 130.04 183.26 158.21 194.45"/><ellipse class="cls-7" cx="108.06" cy="193.6" rx="2.73" ry="1.5" transform="translate(-110.42 231.32) rotate(-70.63)"/><ellipse class="cls-7" cx="117.29" cy="167.48" rx="2.73" ry="1.5" transform="translate(-79.62 222.58) rotate(-70.63)"/><ellipse class="cls-7" cx="140.49" cy="173.9" rx="1.05" ry="2.5" transform="translate(-80.17 138.04) rotate(-41.83)"/><ellipse class="cls-7" cx="117.3" cy="203.92" rx="2.73" ry="1.5" transform="translate(-42.99 31.73) rotate(-13.04)"/><ellipse class="cls-7" cx="130.78" cy="200.8" rx="2.73" ry="1.5" transform="translate(-41.94 34.69) rotate(-13.04)"/><ellipse class="cls-7" cx="144.26" cy="197.68" rx="2.73" ry="1.5" transform="translate(-40.89 37.66) rotate(-13.04)"/><path class="cls-2" d="M213.37,100.18A14.34,14.34,0,0,1,207.52,76l51.24-48.82a14.34,14.34,0,0,1,23.84,7L299.22,103a14.34,14.34,0,0,1-18,17.13Z"/><path class="cls-5" d="M284.05,110.56l-67.86-20a4.35,4.35,0,0,1-1.77-7.32l51.23-48.82a4.35,4.35,0,0,1,7.23,2.12l16.62,68.8A4.34,4.34,0,0,1,284.05,110.56ZM240.43,82l27.88,8.2A1.9,1.9,0,0,0,270.7,88l-6.83-28.26a1.9,1.9,0,0,0-3.17-.93l-21,20.06A1.9,1.9,0,0,0,240.43,82Z"/><path class="cls-2" d="M457.62,115.91a12.13,12.13,0,0,1-9.45-1.22c-13.66-8.22.43-33.58,2.08-36.44A59.55,59.55,0,0,1,453.67,73a57.37,57.37,0,0,1-5.6-2.88c-2.86-1.66-27.71-16.62-20-30.56a12.1,12.1,0,0,1,7.6-5.76c10.34-2.76,27.08,6.32,29,7.37a58.59,58.59,0,0,1,5.44,3.42,60.12,60.12,0,0,1,2.8-5.45c.43-.73,10.61-18.07,21.46-21a11.84,11.84,0,0,1,14.81,8.37c2.94,10.34-6.25,27.29-7.31,29.19a59.06,59.06,0,0,1-3.32,5.3,58.75,58.75,0,0,1,5.52,2.94c1.86,1.11,18.28,11.23,20.88,21.66a11.83,11.83,0,0,1-8.66,14.63c-10.86,2.9-28.32-7.06-29.06-7.48a60.18,60.18,0,0,1-5.15-3.33,59.44,59.44,0,0,1-3,5.67C478,96.93,468,113.14,457.62,115.91Z"/><path class="cls-4" d="M472.13,68.24a.2.2,0,0,0-.1-.37,50.34,50.34,0,0,1-18.94-6.43c-8.73-5.08-17.95-14-16.24-17.07s13.73.36,22.94,5.49a43.12,43.12,0,0,1,14.95,13.22.2.2,0,0,0,.38-.08,50.26,50.26,0,0,1,6.43-18.87c5.07-8.74,14-18,17.06-16.25s-.35,13.74-5.48,22.94A43.21,43.21,0,0,1,480,65.74a.21.21,0,0,0,.1.38,43.35,43.35,0,0,1,18.85,6.38c9,5.42,18,14.17,16.19,17.15s-14.13-.53-22.89-5.58a50.27,50.27,0,0,1-15-13.16.21.21,0,0,0-.37.12,43,43,0,0,1-6.38,18.91c-5.42,9-14.17,18-17.15,16.19s.54-14.14,5.58-22.89A50.08,50.08,0,0,1,472.13,68.24Z"/><circle class="cls-2" cx="692" cy="67" r="50"/><circle class="cls-6" cx="692" cy="67" r="40"/><ellipse class="cls-7" cx="680.34" cy="55.24" rx="8.24" ry="4.28" transform="translate(475.42 706.34) rotate(-77.17)"/><ellipse class="cls-7" cx="706.23" cy="61.14" rx="8.24" ry="4.28" transform="translate(489.81 736.17) rotate(-77.17)"/><path class="cls-8" d="M664.28,65.14a26.13,26.13,0,0,0,7.13,17.16,30.68,30.68,0,0,0,14.8,8.39,33,33,0,0,0,16.91-.87c5-1.89,10.89-7.38,13.93-12.67"/><path class="cls-2" d="M878,115a16.14,16.14,0,0,1-19.23-12.78l-9.43-49.45a16.52,16.52,0,0,1,13.12-19.3L938.3,19a16.4,16.4,0,0,1,19.05,13.16l9.42,49.45a16,16,0,0,1-12.93,18.92Z"/><path class="cls-3" d="M952,90.69l-75.89,14.46a6.24,6.24,0,0,1-7.54-4.83l-9.43-49.45a6.53,6.53,0,0,1,5.17-7.6L940.17,28.8A6.3,6.3,0,0,1,947.52,34L957,83.47A6,6,0,0,1,952,90.69Z"/><path class="cls-10" d="M948.73,40.36,860.32,57.21l-1.21-6.34a6.58,6.58,0,0,1,5.26-7.62L940,28.84A6.5,6.5,0,0,1,947.52,34Z"/><path class="cls-12" d="M892.06,61.9l-9.93,14.3-1.42,2.06a1,1,0,0,0,.36,1.37l14.55,9.84,2,1.39c1.07.72,2.07-1,1-1.73l-14.55-9.84-2-1.39.36,1.37L892.36,65l1.42-2.06c.74-1.06-1-2.06-1.72-1Z"/><path class="cls-12" d="M920,58l14.36,9.76,2.07,1.4-.36-1.37-9.76,14.36-1.4,2.07c-.73,1.06,1,2.07,1.72,1l9.76-14.36,1.4-2.07a1,1,0,0,0-.35-1.37l-14.36-9.76L921,56.23c-1.07-.73-2.07,1-1,1.73Z"/><path class="cls-12" d="M911.4,57.18l-2,10.71L906.13,85l-.74,3.91c-.24,1.26,1.69,1.8,1.93.54l2-10.71,3.23-17.07.74-3.91c.24-1.26-1.68-1.8-1.92-.53Z"/><circle class="cls-5" cx="868.06" cy="49.37" r="2.5"/><circle class="cls-6" cx="876.96" cy="47.67" r="2.5"/><circle class="cls-4" cx="885.65" cy="46.02" r="2.5"/><path class="cls-2" d="M1071.16,95.87a10,10,0,0,1,1.95-10.12l16.07-17.88-11.83-10.73a10,10,0,0,1-2.68-4,10.14,10.14,0,0,1-.42-5.36,10,10,0,0,1,6.39-7.47l68.58-25a10,10,0,0,1,13.12,11.89l-18.15,70.49a10,10,0,0,1-16.31,5L1116.14,92.3l-16,17.79a10,10,0,0,1-14.14.75l-12.18-11A9.84,9.84,0,0,1,1071.16,95.87Z"/><path class="cls-9" d="M1134.5,95.19l-19.18-17-22.58,25.18-12.19-11,22.72-25.28-19.2-17.41,68.58-25Z"/><path class="cls-2" d="M1320.3,6.63l-29,8.82a10,10,0,0,0-7,7.88l-6.06,35.22a10,10,0,0,0,3.75,9.62l24.31,18.73a10,10,0,0,0,9.21,1.59l3.8-1.25,6.55,20.06a10,10,0,0,0,7.81,6.75l35.08,6a10,10,0,0,0,9.71-3.88l18.17-24.4a10,10,0,0,0,1.55-8.88l-8.82-29.05a10,10,0,0,0-7.87-6.95l-25.16-4.32,1.12-6.53a10,10,0,0,0-3.88-9.72l-24.4-18.17A10,10,0,0,0,1320.3,6.63Z"/><polygon class="cls-13" points="1341.58 69.45 1347.61 34.37 1323.21 16.2 1294.16 25.02 1288.11 60.25 1312.41 78.98 1341.58 69.45"/><polyline class="cls-8" points="1288.11 60.25 1317.14 51.51 1341.58 69.45 1317.14 51.51 1323.21 16.2"/><ellipse class="cls-7" cx="1336.85" cy="55.74" rx="1.5" ry="2.73" transform="translate(54.9 439) rotate(-19.03)"/><ellipse class="cls-7" cx="1332.42" cy="42.92" rx="1.5" ry="2.73" transform="translate(58.84 436.86) rotate(-19.03)"/><ellipse class="cls-7" cx="1328" cy="30.08" rx="1.5" ry="2.73" transform="translate(62.79 434.71) rotate(-19.03)"/><ellipse class="cls-7" cx="1314.84" cy="64.85" rx="1.5" ry="2.73" transform="translate(1028.05 1349.67) rotate(-80.24)"/><ellipse class="cls-7" cx="1325.07" cy="47.08" rx="1.5" ry="2.73" transform="translate(57.08 434.69) rotate(-19.03)"/><ellipse class="cls-7" cx="1339.76" cy="38.79" rx="1.5" ry="2.73" transform="translate(60.59 439.03) rotate(-19.03)"/><ellipse class="cls-7" cx="1314.06" cy="27.68" rx="2.73" ry="1.5" transform="translate(473.47 1038.09) rotate(-51.45)"/><ellipse class="cls-7" cx="1311.23" cy="44.7" rx="2.73" ry="1.5" transform="translate(459.1 1042.3) rotate(-51.45)"/><ellipse class="cls-7" cx="1299.28" cy="31.82" rx="2.73" ry="1.5" transform="translate(464.67 1028.1) rotate(-51.45)"/><ellipse class="cls-7" cx="1297.14" cy="48.91" rx="2.73" ry="1.5" transform="translate(450.5 1032.86) rotate(-51.45)"/><polygon class="cls-13" points="1335.38 104.19 1370.45 110.22 1388.62 85.82 1379.8 56.78 1344.58 50.72 1325.84 75.03 1335.38 104.19"/><polyline class="cls-8" points="1388.62 85.82 1353.31 79.75 1335.38 104.19 1353.31 79.75 1344.58 50.72"/><ellipse class="cls-7" cx="1375.07" cy="90.55" rx="2.73" ry="1.5" transform="translate(45.64 453.37) rotate(-19.03)"/><ellipse class="cls-7" cx="1348.87" cy="99.54" rx="2.73" ry="1.5" transform="translate(41.28 445.31) rotate(-19.03)"/><ellipse class="cls-7" cx="1339.48" cy="77.37" rx="2.5" ry="1.05" transform="translate(1036.18 1384.36) rotate(-80.24)"/><ellipse class="cls-7" cx="1377.42" cy="76.89" rx="1.5" ry="2.73" transform="translate(458.86 1106.18) rotate(-51.45)"/><ellipse class="cls-7" cx="1366.6" cy="68.27" rx="1.5" ry="2.73" transform="translate(461.53 1094.48) rotate(-51.45)"/><ellipse class="cls-7" cx="1355.78" cy="59.65" rx="1.5" ry="2.73" transform="translate(464.19 1082.76) rotate(-51.45)"/><path class="cls-2" d="M1567.55,112a19.93,19.93,0,0,1-12.56-8.93l-5.26-8.4-8,5.06a20.43,20.43,0,0,1-28.18-6.42,19.62,19.62,0,0,1,6.16-27.07l8.69-5.46-5.28-8.39a20,20,0,0,1,6.28-27.56l.12-.08A20.06,20.06,0,0,1,1557.16,31l5.23,8.31,8.39-5.3a19.93,19.93,0,0,1,27.51,6.24l.08.12a20,20,0,0,1-6.23,27.46l-8.51,5.38,5.36,8.45a20,20,0,0,1-6.26,27.7l-.11.07A19.92,19.92,0,0,1,1567.55,112Z"/><path class="cls-6" d="M1586.8,59.39l-17,10.73L1580.54,87a10,10,0,0,1-3.13,13.87l0,0a10.06,10.06,0,0,1-13.9-3.18l-10.58-16.9-16.52,10.4A10.45,10.45,0,0,1,1522,88h0a9.63,9.63,0,0,1,3-13.28l17.15-10.79-10.6-16.85a10,10,0,0,1,3.14-13.77l.14-.09a10.05,10.05,0,0,1,13.87,3.16l10.56,16.78,16.86-10.65a9.94,9.94,0,0,1,13.71,3.11l.07.12A9.92,9.92,0,0,1,1586.8,59.39Z"/><path class="cls-2" d="M1754.23,128.48a9.8,9.8,0,0,1-4,.22,10,10,0,0,1-8.23-7.34l-23-86.91a10,10,0,0,1,3.46-10.39,10,10,0,0,1,10.9-1l79.1,42a10,10,0,0,1-1.43,18.28l-33,11.39L1760.23,124A10,10,0,0,1,1754.23,128.48Z"/><path class="cls-3" d="M1757.28,67.9l12.53,21.15-18.12,29.76-23-86.91,79.1,42L1775,85.2Z"/><path class="cls-2" d="M61.43,114.19A50,50,0,0,1,1.36,77.73,50.54,50.54,0,0,1,7,39.84c10.36-17.3,28.18-22.16,30.17-22.66C54,13,70.49,20.06,72.31,20.87A10,10,0,0,1,70.65,39.7c-.31.08-.63.14-1,.19h0s-.58.1-1.47.32C65.09,41,57.34,43.46,53,49.48,49,55.2,50.4,63.37,50.94,65.73c1.14,5,4.3,8.86,9.66,11.81s11.13,2.29,15.15,1.29a23.08,23.08,0,0,0,3.87-1.28,10.27,10.27,0,0,1,1.9-.68A10,10,0,0,1,92.28,92c-.46.7-11.32,17.3-30.4,22.06Z"/><path class="cls-3" d="M83.87,86.61s-9.08,14.12-24.76,17.85a40.93,40.93,0,0,1-30.33-4.91A40,40,0,0,1,15.53,45C23.11,32.33,36.12,27.72,39.6,26.87,53.57,23.44,68.22,30,68.22,30S53.05,32.25,44.9,43.67C38.36,52.84,40.37,64.35,41.19,68c.89,3.86,3.58,12.28,14.58,18.34C69.12,93.66,83.87,86.61,83.87,86.61Z"/><circle class="cls-2" cx="44" cy="301" r="50"/><circle class="cls-6" cx="44" cy="301" r="40"/><ellipse class="cls-7" cx="34.04" cy="287.77" rx="8.24" ry="4.28" transform="translate(-247.29 218.32) rotate(-69.39)"/><ellipse class="cls-7" cx="58.89" cy="297.12" rx="8.24" ry="4.28" transform="translate(-239.94 247.64) rotate(-69.39)"/><path class="cls-8" d="M16.78,295.4a26.19,26.19,0,0,0,4.75,18,30.64,30.64,0,0,0,13.53,10.31,32.93,32.93,0,0,0,16.87,1.44c5.23-1.2,11.79-5.84,15.52-10.67"/><path class="cls-2" d="M1864.73,231.61a20.09,20.09,0,0,1-13-25.29l3-9.43-9-2.9a20.46,20.46,0,0,1-13.23-25.71,19.67,19.67,0,0,1,24.69-12.7l9.77,3.13,3-9.43a20,20,0,0,1,25.14-12.93l.16.05a20.09,20.09,0,0,1,13,25.23l-3,9.34,9.46,3a20,20,0,0,1,12.93,25.07l0,.13a20,20,0,0,1-25,12.91L1893,209l-3,9.55a20.05,20.05,0,0,1-25.23,13Z"/><path class="cls-4" d="M1905.64,202.57l-19.14-6.1-6,19.1a10,10,0,0,1-12.64,6.53h0a10.07,10.07,0,0,1-6.51-12.69l6.13-19-18.59-6a10.43,10.43,0,0,1-6.76-13.12h0a9.63,9.63,0,0,1,12.12-6.23l19.29,6.18,6.08-18.95a10,10,0,0,1,12.56-6.47l.16,0a10.05,10.05,0,0,1,6.5,12.65l-6,18.89,19,6.06a9.93,9.93,0,0,1,6.45,12.49l-.05.13A9.93,9.93,0,0,1,1905.64,202.57Z"/><path class="cls-2" d="M105.68,446.77a15.64,15.64,0,0,1-7.32-4.58,10,10,0,0,1-1.78-10.57l6.22-14.77a12,12,0,0,1,.16-4.8,12,12,0,0,1,.11-4.38,11.62,11.62,0,0,1,1.12-3l-3.36-2.59a10,10,0,0,1,5.11-17.87l53.45-5.38a10,10,0,0,1,7.13,2.05L209,413.75a10,10,0,0,1-5.14,17.86l-21,2.07-4.14,14.43a10,10,0,0,1-15.93,5,51.5,51.5,0,0,0-18-9.46l-.12,0A51.25,51.25,0,0,0,124.13,442a10.25,10.25,0,0,1-3.71-.23,10,10,0,0,1-6.09,5,15.76,15.76,0,0,1-8.48.05Z"/><path class="cls-9" d="M178.41,424.06l24.45-2.4-42.47-32.91-53.45,5.38,19.44,15c2.48-5.39,17.18-4.22,28.46-1C166.47,411.37,178.8,417.45,178.41,424.06Z"/><path class="cls-9" d="M128.47,412.66c1.37-3.79,11.76-4.26,25.19-.48,12.66,3.56,21.75,9.76,21,13.72L169,445.35c-2.64-2.8-10.1-8.59-21.77-11.36-12.07-2.87-20.81-3.24-24.38-1.89Z"/><ellipse class="cls-7" cx="116.53" cy="410.82" rx="2.3" ry="3.83" transform="translate(-310.5 409.51) rotate(-73.99)"/><ellipse class="cls-7" cx="115.31" cy="415.09" rx="1.66" ry="2.49" transform="translate(-315.49 411.42) rotate(-73.99)"/><path class="cls-4" d="M113.71,416.72,105.8,435.5a5.67,5.67,0,0,0,5.76,1.66l4-19.91Z"/><line class="cls-2" x1="118.71" y1="403.22" x2="117.41" y2="407.76"/><path class="cls-2" d="M354.57,466.16a20.07,20.07,0,0,1-13.94-24.77l2.69-9.54-9.16-2.56A20.46,20.46,0,0,1,320,404.12a19.66,19.66,0,0,1,24.19-13.64l9.88,2.75,2.66-9.54a20,20,0,0,1,24.62-13.89l.16.05a20.08,20.08,0,0,1,13.94,24.71L392.77,404l9.57,2.65a20,20,0,0,1,13.88,24.56l0,.14a20,20,0,0,1-24.51,13.85L382,442.52l-2.65,9.66a20.05,20.05,0,0,1-24.71,14Z"/><path class="cls-4" d="M394.34,435.57,375,430.21l-5.31,19.32a10.05,10.05,0,0,1-12.38,7h0a10.07,10.07,0,0,1-7-12.43l5.4-19.2-18.81-5.24a10.44,10.44,0,0,1-7.25-12.86h0a9.63,9.63,0,0,1,11.86-6.69L361,405.55l5.34-19.17a10,10,0,0,1,12.31-6.94l.16,0a10,10,0,0,1,7,12.39L380.45,411l19.22,5.32a9.93,9.93,0,0,1,6.92,12.23l0,.14A9.92,9.92,0,0,1,394.34,435.57Z"/><path class="cls-2" d="M545.68,465.76a10,10,0,0,1-10-10.06l.14-25.8a10,10,0,0,1,3-7.14l51.5-49.71a10,10,0,0,1,6.94-2.81,10.22,10.22,0,0,1,2.33.27A43.5,43.5,0,0,1,632.11,404a10,10,0,0,1-2.83,9.21L578,462.85a10,10,0,0,1-6.91,2.81Z"/><path class="cls-7" d="M545.68,448.11v7.65h7.38a7.5,7.5,0,0,0-2-5.43A6.94,6.94,0,0,0,545.68,448.11Z"/><path class="cls-6" d="M566.71,445a26.13,26.13,0,0,1,4.3,10.71.34.34,0,0,0,.25-.11l45-43.7a33.07,33.07,0,0,0-1.46-4.92,32.57,32.57,0,0,0-2.62-5.32Z"/><path class="cls-5" d="M616.31,411.85a33.17,33.17,0,0,0-8.76-16.27,34.63,34.63,0,0,0-16.36-9.42c2-2,4.09-3.94,6.12-5.92a33.45,33.45,0,0,1,25,25.78Z"/><path class="cls-4" d="M566.71,445a33.8,33.8,0,0,0-5.23-6.4,33.4,33.4,0,0,0-5.16-4.07l45.2-43.83a36,36,0,0,1,6.08,5.08,36.33,36.33,0,0,1,4.63,5.88Q589.46,423.27,566.71,445Z"/><path class="cls-8" d="M571.16,455.66a33.37,33.37,0,0,0-8.8-16.24,35.57,35.57,0,0,0-16.68-9.5"/><path class="cls-2" d="M545.68,430v18.08a6.9,6.9,0,0,1,5.35,2.22,7.46,7.46,0,0,1,2,5.43l17.67-.08a.38.38,0,0,0,.36-.46,34.41,34.41,0,0,0-25.31-25.28A.09.09,0,0,0,545.68,430Z"/><path class="cls-6" d="M545.78,429.81a.1.1,0,0,0,0,.15,49.38,49.38,0,0,1,5.4,1.84,36.16,36.16,0,0,1,5.1,2.68h0l45.2-43.83h0a34.74,34.74,0,0,0-5.06-2.71,35.2,35.2,0,0,0-5.27-1.78C576.18,400.72,560.75,415.3,545.78,429.81Z"/><path class="cls-8" d="M545.82,430l-.14,25.8,25.33-.1L622.32,406a33.45,33.45,0,0,0-25-25.78Z"/><path class="cls-2" d="M814.55,471c-6.45,1.77-12.36-1.71-17.56-10.33a72.12,72.12,0,0,1-7.09-16.44,58,58,0,0,1-1.43-6c-1.55.57-3.19,1.1-5,1.59l-.94.25c-2.1.54-20.76,5.12-30-.34a12,12,0,0,1-5.67-7.37C743,417,770.71,408.83,773.89,408l.1,0q3-.81,5.81-1.29a59.18,59.18,0,0,1-1.9-6.05,73,73,0,0,1-2.31-17.75c.07-10.08,3.38-16.09,9.82-17.86l.2-.05c15.42-3.94,23.57,23.8,24.44,27A60.34,60.34,0,0,1,811.4,398a60.88,60.88,0,0,1,5.81-1.91l.1,0c3.18-.87,31.19-8,35.67,7.23a12.08,12.08,0,0,1-1.1,9.24c-5.15,9.41-23.53,15-25.61,15.61l-.94.27c-1.81.5-3.56.89-5.23,1.19q1,2.7,1.88,5.75c.86,3.18,8,31.18-7.23,35.67Z"/><path class="cls-3" d="M801.82,414.43a.19.19,0,0,0,.31.18,50.13,50.13,0,0,1,17.81-8.94c9.7-2.65,22.46-2.95,23.45.4s-9.85,9.49-19.92,12.43a42.87,42.87,0,0,1-19.85,1.36.2.2,0,0,0-.2.32,50,50,0,0,1,8.91,17.76c2.65,9.7,2.95,22.46-.4,23.45s-9.49-9.85-12.44-19.92a43.19,43.19,0,0,1-1.38-19.78.2.2,0,0,0-.33-.18,43,43,0,0,1-17.7,8.91c-10.16,2.62-22.61,2.85-23.47-.5s10.25-9.65,19.94-12.33a49.94,49.94,0,0,1,19.83-1.42.2.2,0,0,0,.17-.33,42.92,42.92,0,0,1-9-17.76c-2.62-10.15-2.85-22.61.51-23.47s9.65,10.26,12.33,19.95A50.09,50.09,0,0,1,801.82,414.43Z"/><path class="cls-2" d="M1004,471.67a10,10,0,0,1-7.48-7.34c-5.39-21.64-13.43-34.39-30.72-48.73a10,10,0,0,1,3.92-17.39c22.35-5.69,35.05-13.63,48.53-30.36a10,10,0,0,1,10-3.49h0a10,10,0,0,1,7.49,7.36c5,20.36,13.35,33.53,30.75,48.6a10,10,0,0,1-4.08,17.25c-21.63,5.51-34.76,13.82-48.43,30.64a10,10,0,0,1-9.93,3.46Z"/><path class="cls-5" d="M972.15,407.9c24.59-6.26,39.17-15.57,53.84-33.78,5.55,22.53,14.86,37.28,33.91,53.77-24.28,6.19-39.14,16.08-53.72,34C1000.51,439.15,991.7,424.11,972.15,407.9Zm39,31.88c7.29-9,14.72-13.92,26.86-17-9.52-8.25-14.18-15.62-17-26.88-7.34,9.1-14.63,13.75-26.93,16.89C1003.89,420.88,1008.3,428.4,1011.13,439.78Z"/><path class="cls-2" d="M1213.68,466.93a12.11,12.11,0,0,1-9.46-1.21c-13.66-8.21.39-33.58,2-36.44a58.13,58.13,0,0,1,3.42-5.29,59.81,59.81,0,0,1-5.61-2.88c-2.86-1.65-27.72-16.59-20-30.54a12.13,12.13,0,0,1,7.59-5.77c10.34-2.77,27.09,6.3,29,7.34a60.76,60.76,0,0,1,5.44,3.41c.81-1.78,1.73-3.6,2.8-5.44.43-.74,10.58-18.09,21.44-21a11.84,11.84,0,0,1,14.81,8.35c3,10.34-6.22,27.3-7.27,29.2a61.41,61.41,0,0,1-3.32,5.3,61,61,0,0,1,5.52,2.93c1.87,1.12,18.3,11.21,20.91,21.65a11.83,11.83,0,0,1-8.65,14.64c-10.85,2.91-28.32-7-29.06-7.46a60.32,60.32,0,0,1-5.16-3.31,59.39,59.39,0,0,1-3,5.67C1234,447.92,1224,464.15,1213.68,466.93Z"/><path class="cls-4" d="M1228.13,419.24a.21.21,0,0,0-.1-.37,50.16,50.16,0,0,1-19-6.41c-8.74-5.06-18-14-16.26-17s13.74.34,23,5.46a43.32,43.32,0,0,1,15,13.2.2.2,0,0,0,.38-.08,50.4,50.4,0,0,1,6.4-18.88c5.07-8.74,14-18,17-16.26s-.34,13.73-5.46,22.94A43.32,43.32,0,0,1,1236,416.74a.21.21,0,0,0,.1.38,43.27,43.27,0,0,1,18.86,6.35c9,5.42,18,14.16,16.21,17.14s-14.14-.52-22.9-5.55a50.32,50.32,0,0,1-15-13.15.21.21,0,0,0-.37.12,43.07,43.07,0,0,1-6.36,18.91c-5.41,9.05-14.15,18-17.14,16.21s.52-14.13,5.56-22.89A50,50,0,0,1,1228.13,419.24Z"/><circle class="cls-2" cx="1448" cy="418" r="42.2"/><circle class="cls-11" cx="1448" cy="418" r="32.2"/><polygon class="cls-6" points="1440.94 397.5 1431.7 432.29 1465.51 422.65 1440.94 397.5"/><path class="cls-2" d="M1727.62,424.9a10,10,0,0,1-4.9,13.25l-81.66,37.6a10,10,0,0,1-10.83-1.61,10.16,10.16,0,0,1-2.44-3.3,10,10,0,0,1-.42-7.27l27.71-85.15a10,10,0,0,1,18.26-1.75l16.91,30.57,31.93,12.52A10,10,0,0,1,1727.62,424.9Z"/><path class="cls-3" d="M1667.43,432.34l18.67-16,32.43,12.72-81.65,37.59,27.71-85.15,16.82,30.41Z"/><path class="cls-2" d="M1832.51,450a14.35,14.35,0,0,1-5.21-24.3l52.5-47.46a14.35,14.35,0,0,1,23.65,7.64L1918.26,455a14.34,14.34,0,0,1-18.44,16.65Z"/><path class="cls-5" d="M1902.9,462.18l-67.31-21.75a4.34,4.34,0,0,1-1.58-7.36l52.5-47.46a4.34,4.34,0,0,1,7.16,2.31l14.81,69.21A4.35,4.35,0,0,1,1902.9,462.18ZM1860,432.51l27.66,8.93a1.91,1.91,0,0,0,2.45-2.21l-6.09-28.43a1.9,1.9,0,0,0-3.14-1l-21.57,19.5A1.91,1.91,0,0,0,1860,432.51Z"/><path class="cls-2" d="M665.09,486.67a10,10,0,0,1,10.1,2.06L692.91,505l10.85-11.72a10,10,0,0,1,16.77,3.45l24.34,68.84a10,10,0,0,1-2.09,10.12,9.9,9.9,0,0,1-4,2.64,10.06,10.06,0,0,1-5.93.23l-70.3-18.85a10,10,0,0,1-4.84-16.36l10.5-11.64-17.63-16.13A10,10,0,0,1,650,501.4l11.11-12.07A10,10,0,0,1,665.09,486.67Z"/><path class="cls-9" d="M665.14,550l17.15-19-24.95-22.84,11.1-12.07,25,23,17.61-19,24.34,68.83Z"/><path class="cls-2" d="M1074.37,500.13a10,10,0,0,1,9.54-10.5l25.78-1.15a10,10,0,0,1,7.28,2.69l52.25,48.93a10,10,0,0,1,3.15,6.8,9.66,9.66,0,0,1-.16,2.33,43.51,43.51,0,0,1-31.8,34.12,10,10,0,0,1-9.34-2.37l-52.16-48.76a10,10,0,0,1-3.16-6.76Z"/><path class="cls-7" d="M1092,499.24l-7.64.38.37,7.38a7.54,7.54,0,0,0,5.33-2.31A6.92,6.92,0,0,0,1092,499.24Z"/><path class="cls-6" d="M1096.21,520.09a26.26,26.26,0,0,1-5.66,3.31,26.57,26.57,0,0,1-4.81,1.52.36.36,0,0,0,.11.25L1131.77,568a32.64,32.64,0,0,0,4.84-1.7,32.25,32.25,0,0,0,5.18-2.89Z"/><path class="cls-5" d="M1131.77,568a33.24,33.24,0,0,0,15.81-9.57,34.6,34.6,0,0,0,8.58-16.81l6.22,5.82a33.45,33.45,0,0,1-24.49,26.27Z"/><path class="cls-4" d="M1096.21,520.09a34.53,34.53,0,0,0,6.14-5.54,33.82,33.82,0,0,0,3.8-5.37l46,42.94a35.79,35.79,0,0,1-4.77,6.33,37.15,37.15,0,0,1-5.64,4.92Q1119,541.73,1096.21,520.09Z"/><path class="cls-8" d="M1085.74,525.07a33.32,33.32,0,0,0,15.78-9.61,35.45,35.45,0,0,0,8.65-17.14"/><path class="cls-2" d="M1110.06,498.33l-18.06.91a6.92,6.92,0,0,1-1.94,5.45,7.49,7.49,0,0,1-5.33,2.31l1,17.64a.37.37,0,0,0,.48.33,34.39,34.39,0,0,0,24-26.54A.09.09,0,0,0,1110.06,498.33Z"/><path class="cls-6" d="M1110.28,498.43a.08.08,0,0,0-.14,0,49.25,49.25,0,0,1-1.57,5.48,36.52,36.52,0,0,1-2.42,5.23h0l46,42.94h0a33.45,33.45,0,0,0,2.44-5.19,34.08,34.08,0,0,0,1.52-5.35C1140.86,527.32,1125.53,512.64,1110.28,498.43Z"/><path class="cls-8" d="M1110.14,498.47l-25.78,1.15,1.38,25.3,52.15,48.75a33.45,33.45,0,0,0,24.49-26.27Z"/><path class="cls-2" d="M924.63,583.15A20.07,20.07,0,0,1,899,570.86l-3.28-9.36-9,3.16a20.45,20.45,0,0,1-26.08-12.47,19.65,19.65,0,0,1,12-25l9.68-3.42-3.3-9.34a20,20,0,0,1,12.2-25.5l.15-.06A20.1,20.1,0,0,1,917,501.07l3.26,9.26,9.36-3.32a20,20,0,0,1,25.46,12.15l0,.13A20,20,0,0,1,943,544.7l-9.49,3.37,3.36,9.43a20,20,0,0,1-12.2,25.64Z"/><path class="cls-4" d="M939.65,535.28,920.72,542l6.73,18.86a10,10,0,0,1-6.11,12.85h0a10.07,10.07,0,0,1-12.86-6.17l-6.59-18.81-18.41,6.49a10.44,10.44,0,0,1-13.32-6.37h0A9.62,9.62,0,0,1,876,536.58l19.11-6.75-6.63-18.77a10,10,0,0,1,6.1-12.74l.15-.06a10.07,10.07,0,0,1,12.84,6.14l6.6,18.71L933,516.43a9.94,9.94,0,0,1,12.69,6.06l.05.13A9.94,9.94,0,0,1,939.65,535.28Z"/><path class="cls-2" d="M271.55,581A19.93,19.93,0,0,1,259,572.05l-5.26-8.4-8,5.06a20.43,20.43,0,0,1-28.18-6.42,19.62,19.62,0,0,1,6.16-27.07l8.69-5.46-5.28-8.39a20,20,0,0,1,6.28-27.56l.12-.08A20.06,20.06,0,0,1,261.16,500l5.23,8.31,8.39-5.3a19.93,19.93,0,0,1,27.51,6.24l.08.12a20,20,0,0,1-6.23,27.46l-8.51,5.38,5.36,8.45a20,20,0,0,1-6.26,27.7l-.11.07A19.92,19.92,0,0,1,271.55,581Z"/><path class="cls-6" d="M290.8,528.39l-17,10.73L284.54,556a10,10,0,0,1-3.13,13.87l0,0a10.06,10.06,0,0,1-13.9-3.18l-10.58-16.9-16.52,10.4A10.45,10.45,0,0,1,226,557h0a9.63,9.63,0,0,1,3-13.28l17.15-10.79-10.6-16.85a10,10,0,0,1,3.14-13.77l.14-.09a10.05,10.05,0,0,1,13.87,3.16l10.56,16.78,16.86-10.65a9.94,9.94,0,0,1,13.71,3.11l.07.12A9.92,9.92,0,0,1,290.8,528.39Z"/><path class="cls-2" d="M95.06,551.57c-8.57,4.72-17.68.87-25.53-3.11-3.07-1.55-11.3.72-16.77,3.73S40.87,561,40.49,564.57c-1,9.5-2.6,18.39-10.34,22.65a17.8,17.8,0,0,1-1.7.82,17.38,17.38,0,0,1-18-2.81C-2.67,574.56-6.64,544-3.6,527.63a21.72,21.72,0,0,1,17.16-17.38,49.57,49.57,0,0,0,12.79-5.2A53.09,53.09,0,0,0,38,496.78a20.88,20.88,0,0,1,22.93-5c15.48,5.56,40.48,25.19,42.88,42.12a16.68,16.68,0,0,1-6.71,16.37A20.16,20.16,0,0,1,95.06,551.57Z"/><path class="cls-4" d="M6.23,529.45c-3.51,18.94,4.46,55.08,18.42,49.34,3.28-1.35,4.75-4.74,5.9-15.3,1-9.6,13.14-17.73,17.39-20.07s17.47-8.25,26.1-3.88c9.74,4.93,13.72,5.14,17.17,2.64,11.49-8.33-15.19-34.34-33.68-41-4.18-1.5-8.8-1.17-12.34,2.51C39,510.18,24.87,518.22,15.5,520.06A11.74,11.74,0,0,0,6.23,529.45Z"/><circle class="cls-5" cx="49.48" cy="522.52" r="2.5"/><circle class="cls-6" cx="52.14" cy="513.66" r="2.5"/><circle class="cls-3" cx="58.45" cy="525.1" r="2.5"/><circle class="cls-9" cx="60.97" cy="516.2" r="2.5"/><path class="cls-10" d="M30.75,536.32l-2.86,1.58,1.56,2.83c.79,1.44-.28,3.31-1.29,3.87a3,3,0,0,1-4-1l-1.56-2.83-2.91,1.61a3.06,3.06,0,0,1-3.79-1.34,3,3,0,0,1,.89-3.92l2.92-1.6-1.57-2.85a3.16,3.16,0,0,1,1.28-3.85c1-.57,3.16-.56,4,1L25,532.64l2.86-1.57a3,3,0,0,1,2.9,5.25Z"/><path class="cls-2" d="M445.4,583.63a16.16,16.16,0,0,1-19.08-13l-8.86-49.55a16.52,16.52,0,0,1,13.34-19.15l76.05-13.59a16.38,16.38,0,0,1,18.89,13.38l8.86,49.56A16,16,0,0,1,521.45,570Z"/><path class="cls-3" d="M519.69,560.19l-76.05,13.59a6.24,6.24,0,0,1-7.48-4.92l-8.86-49.55a6.52,6.52,0,0,1,5.26-7.54l76.05-13.6a6.3,6.3,0,0,1,7.29,5.3L524.76,553A6,6,0,0,1,519.69,560.19Z"/><path class="cls-10" d="M517,509.83l-88.59,15.84-1.14-6.36a6.58,6.58,0,0,1,5.34-7.56l75.76-13.54a6.5,6.5,0,0,1,7.5,5.26Z"/><path class="cls-12" d="M460.11,530.73,450,544.92l-1.45,2a1,1,0,0,0,.35,1.37l14.44,10,2,1.42c1.06.73,2.06-1,1-1.73L452,548l-2-1.41.36,1.37,10.09-14.19,1.45-2a1,1,0,0,0-1.73-1Z"/><path class="cls-12" d="M488.09,527.1,502.34,537l2.05,1.43-.36-1.37-9.92,14.25-1.43,2c-.74,1.06,1,2.06,1.73,1l9.92-14.25,1.43-2a1,1,0,0,0-.36-1.36l-14.25-9.93-2-1.43c-1.06-.74-2.06,1-1,1.73Z"/><path class="cls-12" d="M479.51,526.23l-2.16,10.68-3.43,17-.78,3.9c-.26,1.26,1.67,1.8,1.93.53l2.15-10.68,3.43-17,.78-3.91c.26-1.26-1.67-1.79-1.92-.53Z"/><circle class="cls-5" cx="436.26" cy="517.91" r="2.5"/><circle class="cls-6" cx="445.18" cy="516.32" r="2.5"/><circle class="cls-4" cx="453.9" cy="514.76" r="2.5"/><path class="cls-2" d="M1327.15,588.66c-6.41-1.92-9.57-8-9.39-18.08a72.37,72.37,0,0,1,2.72-17.69c.6-2.1,1.27-4,2-5.85-1.61-.33-3.29-.75-5-1.28l-.94-.29c-2.06-.65-20.3-6.69-25.22-16.22a12.06,12.06,0,0,1-.89-9.25c4.85-15.16,32.68-7.33,35.84-6.39l.09,0c2,.6,3.86,1.27,5.62,2a59.33,59.33,0,0,1,1.6-6.13,72.64,72.64,0,0,1,7.48-16.27c5.41-8.5,11.4-11.83,17.8-9.9l.2.06c15.16,4.85,7.32,32.68,6.38,35.83a59.8,59.8,0,0,1-2.08,5.86,59,59,0,0,1,5.94,1.47l.09,0c3.16,1,30.69,9.76,26.38,25.08a12.05,12.05,0,0,1-5.84,7.24c-9.36,5.24-27.9.22-30-.37l-.94-.28c-1.8-.54-3.49-1.14-5.07-1.77-.37,1.89-.85,3.85-1.46,5.87-1,3.15-9.76,30.69-25.08,26.38Z"/><path class="cls-3" d="M1346.44,533.94a.19.19,0,0,0,.17.32,50,50,0,0,1,19.84,1.89c9.62,2.91,20.59,9.43,19.65,12.8s-13.39,2.8-23.48-.06a42.74,42.74,0,0,1-17.54-9.39.2.2,0,0,0-.34.16,49.81,49.81,0,0,1-1.89,19.78c-2.91,9.63-9.44,20.6-12.8,19.65s-2.8-13.38,0-23.48a43,43,0,0,1,9.34-17.48.2.2,0,0,0-.18-.34,43,43,0,0,1-19.74-1.85c-10-3.18-20.67-9.6-19.61-12.9s13.81-2.72,23.45.16a50,50,0,0,1,17.54,9.32.2.2,0,0,0,.32-.19,43,43,0,0,1,1.84-19.8c3.18-10,9.6-20.68,12.9-19.62s2.73,13.82-.15,23.45A49.9,49.9,0,0,1,1346.44,533.94Z"/><path class="cls-2" d="M1570.74,589a10,10,0,0,1-10.06-2.93c-15-16.53-28.08-24-50.09-28.44a10,10,0,0,1-4.76-17.18c17-15.57,24.44-28.57,28.42-49.68a10,10,0,0,1,7.13-7.78h0a10,10,0,0,1,10.08,2.94c14,15.58,27.6,23.25,50,28.31a10,10,0,0,1,4.56,17.13c-16.46,15.08-24.11,28.6-28.21,49.89a10,10,0,0,1-7.12,7.73Z"/><path class="cls-5" d="M1512.58,547.82c18.72-17.14,27.17-32.23,31.5-55.21,15.52,17.23,30.7,25.83,55.28,31.36-18.48,16.93-26.9,32.67-31.27,55.37C1552.34,562,1537.47,552.87,1512.58,547.82ZM1562,557.5c2.18-11.35,6.39-19.22,15.63-27.69-12.29-2.77-19.88-7.06-27.64-15.68-2.16,11.49-6.39,19-15.75,27.61C1546.69,544.26,1554.12,548.8,1562,557.5Z"/><path class="cls-2" d="M1713.24,527,1710,557.13a10,10,0,0,0,4.53,9.48l30,19.35a10,10,0,0,0,10.31.31l26.75-15a10,10,0,0,0,5.06-7.86l.34-4,21,1.81a10,10,0,0,0,9.26-4.55l19.27-29.92a10,10,0,0,0,.23-10.46L1821.48,490a10,10,0,0,0-7.57-4.89l-30.18-3.25a10,10,0,0,0-9.47,4.53l-13.82,21.46-5.57-3.58a10,10,0,0,0-10.46-.23l-26.27,15.35A10,10,0,0,0,1713.24,527Z"/><polygon class="cls-13" points="1779.37 531.94 1749.45 512.67 1723.18 528.02 1719.94 558.2 1749.99 577.55 1776.74 562.51 1779.37 531.94"/><polyline class="cls-8" points="1749.99 577.55 1753.31 547.42 1779.37 531.94 1753.31 547.42 1723.18 528.02"/><ellipse class="cls-7" cx="1764.91" cy="530.93" rx="1.5" ry="2.73" transform="translate(1112.36 2254.58) rotate(-86.01)"/><ellipse class="cls-7" cx="1751.37" cy="529.99" rx="1.5" ry="2.73" transform="translate(1100.7 2240.2) rotate(-86.01)"/><ellipse class="cls-7" cx="1737.83" cy="529.04" rx="1.5" ry="2.73" transform="translate(1089.05 2225.81) rotate(-86.01)"/><ellipse class="cls-7" cx="1764.68" cy="554.75" rx="2.73" ry="1.5" transform="translate(342.74 1737.94) rotate(-57.21)"/><ellipse class="cls-7" cx="1752.33" cy="538.38" rx="1.5" ry="2.73" transform="translate(1093.23 2248.97) rotate(-86.01)"/><ellipse class="cls-7" cx="1750.45" cy="521.62" rx="1.5" ry="2.73" transform="translate(1108.19 2231.49) rotate(-86.01)"/><ellipse class="cls-7" cx="1730.17" cy="540.93" rx="1.5" ry="2.73" transform="translate(-48.91 888.72) rotate(-28.42)"/><ellipse class="cls-7" cx="1744.73" cy="550.19" rx="1.5" ry="2.73" transform="translate(-51.57 896.77) rotate(-28.42)"/><ellipse class="cls-7" cx="1728.2" cy="556.15" rx="1.5" ry="2.73" transform="translate(-56.39 889.62) rotate(-28.42)"/><ellipse class="cls-7" cx="1743.09" cy="564.8" rx="1.5" ry="2.73" transform="translate(-58.72 897.75) rotate(-28.42)"/><polygon class="cls-13" points="1808.92 551.24 1828.19 521.32 1812.85 495.05 1782.67 491.81 1763.31 521.86 1778.35 548.6 1808.92 551.24"/><polyline class="cls-8" points="1812.85 495.05 1793.45 525.17 1808.92 551.24 1793.45 525.17 1763.31 521.86"/><ellipse class="cls-7" cx="1811.89" cy="509.37" rx="2.73" ry="1.5" transform="translate(1177.57 2281.39) rotate(-86.01)"/><ellipse class="cls-7" cx="1809.92" cy="537" rx="2.73" ry="1.5" transform="matrix(0.07, -1, 1, 0.07, 1148.17, 2305.13)"/><ellipse class="cls-7" cx="1785.85" cy="536.97" rx="1.05" ry="2.5" transform="matrix(0.54, -0.84, 0.84, 0.54, 367.39, 1747.58)"/><ellipse class="cls-7" cx="1800.24" cy="501.87" rx="2.73" ry="1.5" transform="translate(-21.87 917.36) rotate(-28.42)"/><ellipse class="cls-7" cx="1788.08" cy="508.45" rx="2.73" ry="1.5" transform="translate(-26.47 912.37) rotate(-28.42)"/><ellipse class="cls-7" cx="1775.91" cy="515.04" rx="2.73" ry="1.5" transform="translate(-31.08 907.37) rotate(-28.42)"/></g></svg>